<svg xmlns="http://www.w3.org/2000/svg" width="338" height="338" viewBox="0 0 338 338">
    <g fill="none" fill-rule="evenodd">
        <path fill="#FFF" d="M-551-1077H889v5670H-551z"/>
        <path fill="#FAFAFA" d="M-588-255H970v735H-588z"/>
        <g transform="translate(-16 -16)">
            <circle cx="185" cy="185" r="168" stroke="#17BC7E" transform="rotate(6 185 185)"/>
            <path stroke="#D2D2D2" d="M104.24 61.437l81.195 124.12-146.684 22.657c-3.571-25.409-1.297-49.507 6.822-72.295 8.12-22.787 19.43-40.99 33.93-54.608l3.458-3.678 5.888-5.176 15.392-11.02z"/>
            <circle cx="185.195" cy="185.68" r="7.5" fill="#F79838" opacity=".207" transform="rotate(29 185.195 185.68)"/>
            <circle cx="185" cy="185" r="122" stroke="#FFD400" stroke-width=".5" transform="rotate(91 185 185)"/>
            <circle cx="185.242" cy="185.664" r="4.5" fill="#F79838" transform="rotate(29 185.242 185.664)"/>
            <path fill="#17BC7E" stroke="#FAFAFA" stroke-width="6" d="M153.533 297.898c13.696-6.809 20.578-22.588 16.05-36.746l-.18-.499c-1.975-5.827-5.67-10.838-10.678-14.49l-.804-.586-.022-.067c-.03-.023-.06-.05-.09-.073-11.016-7.842-19.657-19.034-24.107-32.729-11.287-34.739 8.59-72.337 44.394-83.97 14.054-4.566 28.476-4.434 41.489-.51.109.029.214.048.323.077l.045-.015.943.267c6.011 1.756 12.391 1.688 18.45-.2l.708-.22c14.442-4.853 23.555-19.428 21.225-34.043a29.767 29.767 0 0 0-1.09-4.528 29.719 29.719 0 0 0-1.78-4.305c-6.734-13.247-22.778-19.68-37.367-15.01l-.517.179c-6.01 2.039-11.213 5.728-15.045 10.682-.349.456-.722.889-1.102 1.318-.365.424-.713.864-1.086 1.28a94.735 94.735 0 0 1-5.21 5.525 94.476 94.476 0 0 1-3.595 3.333 89.556 89.556 0 0 1-3.765 3.136 86.73 86.73 0 0 1-3.916 2.94 95.242 95.242 0 0 1-8.29 5.256 96.415 96.415 0 0 1-8.838 4.388 94.11 94.11 0 0 1-4.601 1.854 95.464 95.464 0 0 1-3.947 1.384c-.665.216-1.333.422-2.002.624-16.916 5.094-34.788 5.391-51.683.859a32.02 32.02 0 0 0-14.26-.844 34.448 34.448 0 0 0-4.293 1.019l-.37.12c-.43.14-.854.294-1.277.453l-.232.086-.162.063c-.288.115-.583.227-.87.347l-.44.192c-.266.118-.536.238-.8.361l-.431.205-.172.082-.252.125-.25.135-.084.043c-.18.091-.36.187-.534.28-.205.116-.41.23-.62.352l-.079.047c-.172.1-.35.2-.525.305-.204.12-.4.248-.602.373-.223.147-.407.26-.585.377a33.74 33.74 0 0 0-.576.402 15.35 15.35 0 0 0-.567.398c-.188.136-.374.277-.558.423-.208.159-.378.283-.544.418-.153.124-.3.248-.459.374l-.085.076c-.192.159-.358.293-.516.436l-.51.454-.067.065c-.145.133-.294.267-.437.405-.157.147-.305.303-.462.45-.19.196-.355.351-.507.513-.153.157-.295.316-.438.47-.19.2-.34.367-.488.539-.13.144-.262.3-.385.446l-.064.075-.435.516c-.113.144-.233.301-.354.458l-.067.081-.077.105c-.108.143-.223.282-.325.427-.127.17-.252.345-.378.52l-.1.15c-.103.141-.2.285-.302.43-.127.187-.245.37-.362.553-.136.21-.257.4-.376.593-.102.162-.205.34-.309.513l-.37.646c-.107.196-.215.391-.316.59l-.041.078c-.093.175-.182.343-.269.516-.09.18-.168.35-.252.516l-.045.1-.036.076c-.082.172-.163.348-.244.525-.093.207-.176.41-.264.616-.096.23-.182.424-.26.626-.083.204-.16.41-.236.618-.088.237-.161.438-.233.643a19.87 19.87 0 0 0-.205.625c-.084.252-.147.45-.209.652-.054.189-.105.371-.158.566l-.028.1c-.055.205-.113.417-.166.627-.054.21-.105.426-.15.644-.052.231-.104.446-.15.66-.04.2-.072.393-.11.582l-.03.176-.101.558c-.034.22-.057.42-.084.627l-.02.125c-.023.2-.053.398-.078.593-.015.193-.036.382-.052.57l-.005.103a16.24 16.24 0 0 0-.088 1.245l-.005.103a13.83 13.83 0 0 0-.023.678c-.005.205-.008.399-.006.591v.086c-.002.231 0 .46.01.694.003.213.016.44.024.667.012.243.023.464.041.689.011.221.036.45.058.672l.007.09c.022.201.038.405.064.605.023.223.058.448.092.673l.037.283.03.21.045.258.059.335.02.095c.051.278.103.556.166.836l.103.47c.063.28.136.572.216.868l.037.149.064.247c.103.368.21.73.326 1.105l.185.535a29.514 29.514 0 0 0 1.647 3.93c2.127 4.185 5.168 7.748 9.045 10.583 13.787 10.522 24.052 24.621 29.725 40.807.218.637.438 1.278.647 1.923.211.65.41 1.293.609 1.94 4.833 16.133 4.906 33.239.218 49.533l.014.043-.288.93c-1.908 5.894-1.95 12.125-.128 18.002l.2.648c4.714 14.032 19.502 22.69 34.532 20.155a32.549 32.549 0 0 0 4.66-1.145 32.496 32.496 0 0 0 4.443-1.813"/>
            <path fill="#FAFAFA" d="M280.703 271.508c.168-.03.34-.053.504-.075.171-.024.34-.054.51-.077l.52-.074c.177-.027.348-.05.522-.083.171-.023.348-.05.525-.076.177-.026.36-.054.54-.075.175-.032.352-.058.537-.08.175-.033.36-.055.543-.083.183-.029.366-.057.551-.08l.55-.085.557-.082c.191-.025.38-.056.564-.084l.57-.086c.19-.025.38-.056.577-.083.19-.03.38-.055.576-.089.191-.024.389-.051.578-.082.197-.027.392-.06.59-.087.195-.034.392-.06.59-.088.195-.033.392-.06.59-.087.195-.033.398-.062.596-.09.203-.029.4-.056.602-.091.197-.027.4-.057.604-.086l.608-.094.61-.088c.204-.03.408-.06.611-.088.208-.038.411-.068.617-.09.207-.039.41-.068.622-.094.208-.037.411-.067.623-.092.201-.036.413-.061.622-.093.208-.038.42-.063.629-.095l.629-.095c.21-.032.419-.064.63-.09.208-.037.42-.063.635-.097.21-.031.42-.063.635-.097.21-.032.421-.057.637-.091l.634-.098c.218-.028.428-.06.643-.093.21-.032.428-.06.643-.094l.64-.1c.219-.028.428-.06.644-.093.218-.028.433-.062.643-.094.215-.034.433-.062.649-.096.215-.034.433-.062.649-.096.215-.034.425-.065.643-.093l.647-.102c.217-.028.433-.062.649-.096l.649-.096c.218-.028.433-.062.649-.096.218-.028.433-.062.649-.096.218-.028.433-.062.649-.096.215-.034.433-.062.649-.096.21-.032.427-.06.643-.094.215-.034.43-.068.649-.096.215-.034.43-.068.649-.096.21-.031.425-.065.643-.093l.64-.1c.216-.034.434-.062.65-.096.209-.031.427-.06.642-.093l.635-.098c.218-.028.427-.06.643-.093.21-.032.427-.06.635-.098.217-.028.427-.06.637-.091.21-.032.427-.06.634-.097.212-.026.422-.058.631-.09l.635-.097c.21-.032.421-.057.622-.093.212-.025.422-.057.629-.095.212-.025.413-.06.625-.086.21-.032.41-.067.622-.093.204-.03.41-.067.614-.097l.617-.09.61-.088.61-.088c.204-.03.405-.065.603-.092.203-.03.407-.059.602-.092.203-.03.4-.056.602-.092l.592-.08c.196-.034.393-.061.596-.09.19-.031.387-.058.582-.091.198-.027.395-.055.584-.085.198-.027.389-.052.578-.083.195-.033.387-.058.578-.083l.57-.086c.189-.03.378-.061.563-.084l.564-.084c.183-.028.372-.06.557-.082l.55-.085c.185-.022.365-.057.545-.077.183-.029.36-.055.543-.083l.537-.081.53-.079c.172-.023.349-.05.526-.076.168-.03.345-.056.516-.08l.513-.071c.169-.03.34-.054.51-.078.163-.027.334-.051.5-.073.162-.027.327-.049.498-.073.156-.025.321-.047.484-.074l.484-.075c.159-.019.316-.044.472-.07.159-.019.316-.044.472-.07.15-.022.31-.041.46-.064l.458-.072c.144-.02.295-.043.445-.066.145-.02.295-.044.44-.064l.433-.062c.145-.02.287-.048.425-.066.139-.018.283-.039.42-.063.138-.019.276-.037.412-.061.133-.016.269-.04.401-.057.13-.022.263-.038.393-.06s.256-.036.386-.058c.127-.014.25-.033.38-.055.125-.02.243-.038.37-.051.115-.024.241-.037.36-.055.117-.017.235-.035.351-.058l.342-.048c1.298-.192 2.777-.814 3.3-1.96.48-1.163-.072-2.674-.815-3.758l-.193-.287c-.072-.097-.138-.197-.202-.29-.068-.106-.14-.204-.207-.303-.074-.104-.142-.21-.21-.315-.075-.104-.143-.21-.218-.313-.077-.11-.145-.215-.222-.325-.076-.11-.147-.221-.224-.33l-.232-.335a37.515 37.515 0 0 1-.475-.693c-.079-.116-.16-.238-.24-.353l-.25-.363c-.083-.127-.165-.249-.246-.37-.09-.126-.174-.254-.263-.379-.082-.122-.172-.247-.255-.375-.092-.131-.176-.259-.268-.39-.086-.134-.176-.26-.268-.39-.086-.134-.178-.266-.27-.397-.095-.138-.18-.271-.273-.403l-.283-.412-.283-.412c-.097-.144-.192-.281-.288-.425a59.559 59.559 0 0 1-.288-.424 14.054 14.054 0 0 0-.294-.423l-.293-.436c-.105-.147-.204-.297-.3-.44a15.423 15.423 0 0 1-.304-.447c-.105-.147-.204-.297-.31-.444-.1-.156-.206-.303-.307-.459-.108-.153-.207-.302-.314-.456-.107-.153-.209-.309-.316-.462-.108-.153-.21-.309-.317-.462a14.086 14.086 0 0 1-.32-.475 71.63 71.63 0 0 1-.648-.946l-.332-.484-.332-.484-.331-.484c-.112-.166-.224-.331-.334-.49a15.751 15.751 0 0 0-.345-.5l-.336-.497c-.112-.165-.227-.337-.345-.5l-.34-.508c-.121-.17-.233-.335-.348-.506-.118-.163-.235-.34-.347-.506-.12-.17-.235-.34-.349-.512-.12-.17-.237-.347-.358-.516a27.103 27.103 0 0 0-.351-.518c-.115-.172-.237-.347-.352-.518-.123-.176-.237-.347-.36-.522-.114-.172-.237-.347-.354-.524-.123-.176-.24-.353-.36-.522-.123-.176-.24-.353-.362-.528-.117-.178-.24-.353-.362-.528-.12-.184-.242-.359-.36-.537a22.151 22.151 0 0 1-.364-.534 21.73 21.73 0 0 1-.362-.527l-.373-.538a22.149 22.149 0 0 0-.365-.534c-.119-.184-.242-.359-.367-.54-.125-.182-.242-.36-.367-.54a18.285 18.285 0 0 1-.367-.54l-.373-.538c-.119-.184-.241-.359-.367-.54l-.367-.54-.375-.544c-.117-.178-.242-.359-.367-.54-.125-.181-.25-.363-.37-.546l-.372-.538c-.125-.181-.244-.365-.37-.546-.125-.181-.25-.363-.373-.538-.119-.183-.244-.365-.369-.546-.125-.181-.248-.356-.37-.546l-.372-.538c-.12-.183-.242-.358-.367-.54a23 23 0 0 1-.37-.546l-.37-.532c-.125-.18-.244-.364-.367-.54-.125-.18-.242-.358-.367-.54-.125-.18-.248-.356-.367-.54a22.148 22.148 0 0 1-.365-.534c-.125-.18-.248-.356-.364-.534a22.155 22.155 0 0 1-.365-.534c-.123-.175-.246-.35-.362-.528-.125-.18-.248-.356-.365-.534-.123-.175-.24-.352-.362-.528-.123-.175-.24-.352-.363-.527-.114-.172-.237-.347-.354-.525-.12-.169-.237-.346-.36-.522-.114-.171-.237-.346-.351-.518-.123-.175-.237-.346-.358-.516l-.351-.518c-.115-.171-.238-.346-.35-.512-.123-.175-.235-.34-.349-.512-.114-.171-.235-.34-.35-.512-.111-.165-.232-.335-.346-.506-.112-.165-.224-.33-.345-.5-.112-.165-.226-.337-.336-.496l-.339-.503a15.4 15.4 0 0 1-.342-.493l-.332-.485-.334-.49c-.11-.16-.22-.319-.331-.484-.11-.16-.22-.319-.324-.48l-.327-.472c-.11-.16-.21-.315-.32-.475l-.32-.468a16.623 16.623 0 0 1-.315-.462 21.423 21.423 0 0 1-.314-.456c-.108-.154-.21-.31-.314-.457-.102-.155-.207-.303-.306-.452a15.42 15.42 0 0 1-.303-.446c-.105-.148-.204-.297-.31-.445a64.071 64.071 0 0 1-.292-.436c-.103-.141-.2-.285-.296-.428a14.387 14.387 0 0 0-.296-.429c-.097-.143-.192-.28-.288-.424-1.587-2.344-2.817-5.02-4.842-7.042-2.274-2.275-3.512-.196-3.543 2.372-.01.372-.016.75-.026 1.121-.01.372-.019.744-.034 1.118-.014.38-.025.746-.047 1.122-.015.374-.037.75-.053 1.125-.021.376-.051.749-.073 1.125-.03.373-.051.75-.081 1.122-.03.373-.066.747-.102 1.122-.03.373-.066.748-.108 1.125-.036.375-.074.744-.116 1.122-.042.377-.087.748-.137 1.122-.042.377-.092.75-.143 1.124-.05.374-.107.75-.163 1.125-.05.374-.107.75-.172 1.122-.056.376-.12.748-.183 1.126-.059.37-.13.744-.192 1.123-.071.374-.136.746-.215 1.117-.07.374-.142.749-.22 1.12-.078.376-.155.753-.234 1.124-.085.373-.164.743-.25 1.116-.082.38-.17.746-.261 1.122-.091.375-.179.742-.276 1.12-.094.369-.187.738-.287 1.11-.097.377-.197.749-.299 1.115-.106.373-.211.747-.32 1.115-.105.374-.213.742-.319 1.116l-.342 1.11c-.114.37-.236.737-.356 1.11-.123.366-.243.738-.365 1.105-.129.369-.251.735-.386 1.106a50 50 0 0 1-.393 1.103c-.129.368-.265.733-.4 1.104-.145.362-.28.733-.425 1.094-.143.367-.285.735-.434 1.104-.146.361-.297.725-.448 1.089-.151.363-.308.73-.46 1.093-.063.142-.126.284-.187.433l-.048.108c-.02.036-.033.076-.048.11-.063.141-.124.29-.187.432a102.625 102.625 0 0 1-1.486 3.216c-.168.356-.339.706-.513 1.065l-.525 1.048c-.178.347-.357.693-.542 1.042l-.546 1.029c-.187.342-.374.685-.564 1.021-.187.343-.376.68-.565 1.016-.19.336-.387.67-.577 1.006l-.593.998c-.198.333-.398.66-.598.986-.206.33-.406.656-.612.985-.202.32-.408.65-.619.967-.208.323-.417.646-.627.963-.211.316-.426.642-.639.953-.219.313-.43.63-.648.943-.22.313-.439.626-.66.933-.22.314-.44.62-.668.93-.221.307-.443.614-.673.918-.23.303-.453.604-.689.91-.226.295-.456.598-.694.898-.232.297-.464.595-.705.888-.232.298-.472.591-.707.883-.24.293-.483.58-.723.874l-.729.863c-.245.281-.49.563-.739.853-.245.281-.498.56-.744.84-.253.278-.504.562-.76.834-.253.278-.507.555-.763.827l-.767.815c-.262.274-.52.54-.784.808-.259.265-.523.533-.79.795-.257.266-.524.528-.79.79-.267.262-.533.524-.805.773-1.848 1.771-2.525 4.1.683 4.226 2.856.114 5.643-.802 8.432-1.225z"/>
            <path fill="#FFD400" d="M287.742 254.601c.088-.016.178-.028.265-.04.09-.012.178-.028.268-.04l.272-.039c.093-.014.183-.026.275-.043l.275-.04c.093-.014.19-.029.283-.04.092-.016.185-.03.282-.042.092-.017.19-.028.285-.043a8.59 8.59 0 0 1 .29-.042l.288-.045.293-.043c.1-.013.2-.029.296-.044l.299-.045c.1-.013.2-.03.303-.044.1-.016.2-.029.302-.046.1-.013.205-.027.304-.044.104-.014.206-.031.31-.045.102-.018.206-.032.31-.046.102-.017.205-.032.31-.046.102-.017.208-.033.312-.047.107-.015.21-.03.316-.048l.317-.045.32-.05.32-.046.32-.046a4.83 4.83 0 0 1 .324-.048c.11-.02.216-.035.327-.048.109-.02.216-.036.327-.049.106-.019.217-.032.327-.049.109-.02.22-.033.33-.05l.33-.05c.11-.016.22-.033.331-.046.109-.02.22-.033.333-.051l.333-.051c.11-.017.222-.03.335-.048l.333-.051c.114-.015.224-.032.338-.05.11-.016.224-.031.337-.049l.337-.052c.114-.015.224-.031.337-.05.114-.014.228-.032.338-.048.113-.018.227-.033.34-.05.114-.019.228-.033.341-.051.113-.018.223-.035.338-.05l.34-.053c.114-.015.227-.032.34-.05l.34-.05c.115-.015.228-.033.341-.051.115-.015.228-.033.341-.05.115-.015.228-.033.34-.05.114-.019.228-.033.342-.051.11-.017.224-.031.337-.05.113-.017.227-.035.34-.05.114-.017.227-.035.342-.05l.337-.05.337-.052c.113-.017.227-.032.34-.05.11-.017.225-.031.338-.049l.333-.051c.114-.015.224-.031.338-.05.11-.016.224-.03.333-.05.114-.015.224-.032.334-.048.11-.017.225-.032.333-.051.112-.014.222-.03.332-.047a52.6 52.6 0 0 1 .333-.051c.11-.017.22-.03.327-.049.11-.013.22-.03.33-.05.11-.013.216-.032.328-.045.11-.017.215-.036.326-.05.107-.015.216-.034.323-.05l.324-.047.32-.047.32-.046c.107-.015.213-.034.317-.048.106-.015.213-.03.316-.048.107-.016.21-.03.316-.048l.31-.043c.103-.017.207-.032.314-.047.099-.016.203-.03.305-.048.104-.014.207-.028.307-.044.103-.015.204-.028.303-.044.103-.017.203-.03.304-.043l.299-.045c.099-.017.198-.033.295-.045l.296-.044c.096-.015.196-.03.293-.043l.288-.044c.098-.012.192-.03.287-.04l.285-.045.282-.042a27125.222 27125.222 0 0 0 .825-.123l.27-.038c.088-.015.178-.028.268-.04a7.02 7.02 0 0 1 .261-.039c.086-.014.172-.026.262-.038.082-.013.169-.025.254-.04l.254-.038c.084-.01.166-.024.248-.037.084-.01.166-.023.248-.036l.241-.035.24-.037c.077-.01.156-.023.235-.035.075-.01.154-.023.23-.034l.228-.032c.076-.011.15-.025.223-.035.073-.01.149-.02.22-.033.073-.01.145-.02.217-.032.07-.008.14-.021.21-.03l.206-.031c.069-.012.135-.019.203-.03.067-.008.132-.018.2-.03.065-.01.127-.02.194-.027.06-.012.127-.019.189-.028a3.5 3.5 0 0 0 .184-.03l.18-.026c.681-.1 1.458-.427 1.732-1.029.253-.61-.038-1.404-.427-1.973l-.102-.15c-.038-.051-.073-.104-.106-.153-.036-.055-.074-.107-.108-.159-.04-.054-.075-.11-.111-.165-.04-.055-.075-.11-.114-.164-.04-.058-.076-.113-.117-.171-.04-.057-.077-.116-.117-.174l-.123-.175-.123-.18-.126-.184-.125-.186-.132-.19-.13-.195c-.046-.065-.09-.132-.137-.198-.043-.064-.09-.13-.134-.197-.049-.069-.092-.136-.14-.205-.046-.07-.093-.136-.141-.205-.046-.07-.094-.14-.142-.208-.05-.072-.095-.142-.143-.211l-.15-.217-.148-.216c-.05-.076-.1-.148-.151-.223-.05-.072-.1-.148-.151-.223-.05-.076-.1-.148-.154-.222l-.154-.229c-.055-.077-.107-.156-.158-.231-.055-.078-.107-.156-.16-.235-.054-.077-.106-.155-.162-.233-.053-.081-.108-.159-.161-.24-.057-.08-.109-.16-.165-.24-.057-.08-.11-.162-.166-.243-.057-.08-.11-.162-.166-.242a7.394 7.394 0 0 1-.169-.25l-.171-.247a7.393 7.393 0 0 1-.169-.25l-.174-.253-.174-.254-.174-.255a41.42 41.42 0 0 0-.356-.52c-.06-.086-.118-.173-.177-.26-.059-.087-.119-.177-.18-.263l-.18-.266a10.476 10.476 0 0 1-.182-.266c-.062-.086-.123-.179-.182-.266-.063-.089-.123-.179-.184-.269-.063-.088-.124-.182-.187-.27-.06-.09-.12-.18-.185-.272-.06-.09-.124-.182-.185-.272-.064-.092-.124-.182-.189-.274-.06-.09-.124-.182-.185-.276-.065-.092-.126-.185-.19-.274-.064-.092-.125-.185-.19-.277-.06-.093-.125-.185-.19-.277-.062-.096-.127-.188-.188-.282a11.63 11.63 0 0 1-.192-.28c-.064-.092-.128-.184-.19-.277l-.196-.282a11.627 11.627 0 0 0-.191-.28c-.063-.097-.127-.19-.193-.284l-.192-.284a9.6 9.6 0 0 1-.193-.283l-.196-.283c-.062-.096-.127-.188-.192-.283l-.193-.284-.197-.285a15.485 15.485 0 0 0-.193-.284 12.08 12.08 0 0 1-.194-.286c-.065-.096-.13-.188-.196-.283l-.193-.286-.196-.283a12.072 12.072 0 0 0-.194-.286c-.066-.096-.13-.188-.194-.287l-.196-.282c-.062-.097-.127-.189-.193-.284-.065-.095-.13-.19-.193-.287l-.195-.279c-.066-.095-.128-.191-.193-.283l-.192-.284c-.066-.095-.13-.187-.193-.283a11.63 11.63 0 0 1-.191-.28c-.066-.096-.13-.188-.192-.281a11.63 11.63 0 0 1-.191-.28 11.41 11.41 0 0 1-.19-.278c-.066-.095-.13-.187-.192-.28l-.19-.277c-.065-.092-.126-.185-.19-.277-.06-.09-.125-.182-.186-.275l-.19-.274c-.06-.09-.124-.182-.184-.273-.064-.091-.124-.182-.188-.27l-.184-.272c-.06-.09-.125-.182-.184-.27a13.996 13.996 0 0 1-.183-.268c-.06-.09-.123-.179-.183-.269l-.183-.266a13.54 13.54 0 0 0-.18-.262l-.177-.26-.178-.264a8.084 8.084 0 0 1-.18-.26l-.174-.254c-.058-.087-.117-.173-.175-.257a40.161 40.161 0 0 1-.344-.507l-.171-.247c-.058-.084-.111-.166-.169-.25l-.167-.245c-.057-.08-.113-.161-.166-.243-.057-.08-.113-.16-.165-.24-.056-.08-.11-.162-.165-.239-.053-.082-.108-.159-.16-.237-.055-.078-.107-.156-.16-.235-.055-.077-.107-.156-.162-.233-.05-.075-.101-.15-.153-.23a7.553 7.553 0 0 1-.156-.224c-.05-.075-.102-.15-.156-.225l-.15-.223c-.834-1.23-1.48-2.635-2.542-3.697-1.194-1.194-1.844-.103-1.86 1.246l-.014.588c-.005.195-.01.39-.018.587-.007.2-.013.392-.025.59-.008.196-.02.393-.027.59-.012.197-.027.393-.039.59-.015.196-.027.394-.043.59-.015.195-.034.392-.053.589-.016.195-.035.392-.057.59a38.547 38.547 0 0 1-.133 1.178c-.022.198-.048.394-.074.59-.027.197-.057.394-.086.591a15.59 15.59 0 0 1-.09.589c-.03.197-.064.393-.097.591-.03.194-.068.391-.1.59-.038.196-.072.391-.113.586a65.753 65.753 0 0 1-.238 1.178l-.132.586c-.043.2-.089.392-.137.59-.048.196-.094.389-.145.587-.049.194-.098.388-.15.583-.052.198-.104.393-.157.585-.056.196-.111.393-.168.586l-.168.586-.18.583c-.06.194-.123.386-.187.582l-.191.58c-.067.194-.132.386-.202.58-.068.195-.135.388-.207.58-.067.193-.14.385-.21.58-.076.19-.147.384-.223.574-.075.193-.15.386-.228.58-.076.19-.156.38-.235.571-.08.19-.162.383-.241.574-.034.075-.067.15-.099.227l-.025.057c-.01.02-.017.04-.025.057l-.098.228c-.084.189-.168.377-.255.568-.084.189-.172.375-.26.562-.088.187-.176.374-.266.558-.088.187-.177.37-.269.559l-.275.55c-.094.182-.188.364-.285.547l-.287.54c-.098.18-.196.36-.296.537-.098.18-.197.356-.297.533-.099.177-.203.351-.302.528l-.312.524c-.103.175-.208.346-.313.518-.109.173-.214.344-.322.517-.106.168-.214.341-.325.507-.11.17-.219.34-.33.506-.11.166-.222.337-.334.5-.115.165-.226.331-.34.496-.116.164-.231.328-.347.49-.115.164-.231.325-.35.488-.117.161-.233.322-.354.482-.12.159-.238.317-.362.477-.119.155-.24.315-.364.472-.122.156-.244.312-.37.466-.122.156-.248.31-.371.463l-.38.46-.383.453-.388.447c-.128.148-.262.294-.39.442-.133.145-.265.294-.4.437-.133.146-.266.292-.4.434l-.403.428c-.137.144-.273.284-.412.424-.135.14-.274.28-.414.418-.135.14-.275.277-.415.414-.14.138-.28.275-.422.407-.97.93-1.326 2.152.358 2.218 1.5.06 2.963-.42 4.427-.643z"/>
        </g>
    </g>
</svg>
