<?xml version="1.0" encoding="UTF-8"?>
<svg width="338px" height="338px" viewBox="0 0 338 338" version="1.1" xmlns="http://www.w3.org/2000/svg" xmlns:xlink="http://www.w3.org/1999/xlink">
    <!-- Generator: Sketch 57.1 (83088) - https://sketch.com -->
    <title>Group 23</title>
    <desc>Created with Sketch.</desc>
    <g id="V02" stroke="none" stroke-width="1" fill="none" fill-rule="evenodd">
        <g id="Group-23" transform="translate(-16.000000, -16.000000)">
            <circle id="Oval" stroke="#17BC7E" transform="translate(185.000000, 185.000000) rotate(6.000000) translate(-185.000000, -185.000000) " cx="185" cy="185" r="168"></circle>
            <circle id="Oval" stroke="#FFD400" stroke-width="2.5" transform="translate(186.133657, 185.000000) rotate(91.000000) translate(-186.133657, -185.000000) " cx="186.133657" cy="185" r="108"></circle>
            <path d="M252.661084,223.195131 L252.130968,223.210892 C245.978571,223.289693 240.070842,225.25448 235.050036,228.88986 L234.244669,229.472992 L234.173307,229.472992 C234.142723,229.494005 234.107043,229.515019 234.076459,229.536033 C223.214189,237.589556 209.900135,242.349172 195.500364,242.349172 C158.973369,242.349172 129.358265,211.826689 129.358265,174.180541 C129.358265,159.402616 133.940705,145.727913 141.693644,134.564355 C141.754811,134.469793 141.805784,134.375231 141.866951,134.280669 L141.866951,134.233388 L142.412358,133.419105 C145.939665,128.244467 147.846042,122.155731 147.922501,115.809576 L147.932695,115.068841 C147.779777,99.8338665 136.734006,86.6634938 122.115053,84.3624873 C120.590971,84.1208291 119.02611,84 117.471445,84 C115.911682,84 114.351919,84.1208291 112.827837,84.3624873 C98.1477166,86.6740007 87.0713617,99.9441887 87.0050973,115.263218 L87.0152918,115.809576 C87.096848,122.155731 88.9981275,128.244467 92.5254343,133.419105 C92.8516592,133.891914 93.1473005,134.380484 93.4378446,134.874308 C93.7283886,135.352371 94.0393218,135.819927 94.3196713,136.303243 C94.7835223,137.070245 95.2320816,137.847754 95.6704463,138.625263 C96.475814,140.054199 97.2353064,141.498895 97.9642151,142.964604 C98.6880266,144.430314 99.3761573,145.911784 100.02351,147.414268 C100.670862,148.911498 101.277437,150.429742 101.843233,151.963746 C102.414127,153.492497 102.944242,155.037008 103.428482,156.59728 C103.91782,158.157551 104.361282,159.733583 104.769063,161.314868 C105.176844,162.901407 105.53875,164.498453 105.864975,166.106005 C106.186102,167.713558 106.471549,169.331617 106.71112,170.960183 C106.955789,172.588749 107.149485,174.222569 107.3075,175.866896 C107.465515,177.511222 107.577655,179.160802 107.649017,180.815635 C107.679601,181.514343 107.705087,182.207797 107.720379,182.906504 C107.73567,183.599958 107.745865,184.298666 107.745865,184.997373 C107.745865,185.696081 107.73567,186.394788 107.720379,187.093496 C107.338084,204.755559 102.098096,221.844998 92.5662124,236.5126 C89.8391761,240.515721 88.0551337,245.091467 87.3568085,249.814309 C87.1478207,251.206471 87.0305836,252.68794 87,254.211438 L87,254.600192 C87,255.051988 87.0152918,255.503784 87.0356808,255.95558 L87.0458754,256.202491 L87.0560699,256.375855 C87.076459,256.685808 87.0917508,257.001014 87.1172371,257.310967 L87.1631125,257.78903 C87.193696,258.077969 87.2242796,258.372162 87.2599605,258.661101 L87.3211276,259.133911 L87.346614,259.323035 L87.3873921,259.601467 L87.4383647,259.879899 L87.4536565,259.974461 C87.4842401,260.174092 87.5199209,260.373722 87.5556018,260.5681 C87.6014772,260.799251 87.6473525,261.030402 87.6983252,261.266807 L87.7187142,261.356116 C87.7594924,261.550493 87.8002705,261.750124 87.8461458,261.949754 C87.8971185,262.180906 87.9582857,262.406803 88.0143556,262.637955 C88.0857173,262.895373 88.1366899,263.105511 88.1927598,263.310395 C88.2590242,263.536293 88.3252887,263.756937 88.3966504,263.982835 C88.4731093,264.250761 88.5342765,264.445138 88.6005409,264.644769 C88.6719026,264.865413 88.7483616,265.086058 88.8299178,265.306702 C88.9165713,265.553614 88.9828357,265.753244 89.0592947,265.952875 C89.1306564,266.136745 89.2020181,266.315362 89.2733798,266.504486 L89.3192552,266.609555 C89.4110059,266.840706 89.4874649,267.040337 89.5741184,267.234714 C89.6658691,267.444852 89.7576199,267.654989 89.8493706,267.859874 L89.8901488,267.943929 C89.971705,268.122546 90.0532612,268.306416 90.1399147,268.485033 C90.2316655,268.67941 90.3336107,268.868534 90.4253615,269.062911 C90.5527931,269.304569 90.6496411,269.509454 90.7566837,269.703831 C90.8586289,269.898208 90.9656715,270.082078 91.0676168,270.265949 C91.2001456,270.507607 91.3122854,270.701984 91.4295225,270.896362 C91.5263705,271.064472 91.6334131,271.237835 91.7353584,271.400692 L91.786331,271.484747 C91.9035681,271.673871 92.0259024,271.868248 92.1431395,272.057372 C92.2450848,272.209721 92.3572246,272.372578 92.4693644,272.535435 L92.5254343,272.624743 L92.6018933,272.729812 C92.7038386,272.876908 92.8006866,273.029258 92.9077291,273.171101 C93.0300635,273.344464 93.1574951,273.517828 93.2849267,273.691191 L93.3970665,273.833034 C93.4990118,273.974877 93.6060543,274.111467 93.7130968,274.253309 C93.850723,274.431926 93.9883491,274.600036 94.1259752,274.768146 C94.2839904,274.962524 94.4267138,275.135887 94.5745345,275.309251 C94.6968688,275.456347 94.834495,275.608697 94.9670238,275.761047 C95.1658171,275.981691 95.318735,276.149801 95.4665557,276.312658 C95.6194736,276.475514 95.7723916,276.638371 95.9304067,276.795974 L95.9915739,276.859015 C96.1292,277.000858 96.2617289,277.137448 96.399355,277.274037 C96.5420784,277.41588 96.6797046,277.541962 96.8122334,277.673298 L96.8937897,277.746847 L96.9549568,277.804634 C97.092583,277.93597 97.2353064,278.067306 97.3780298,278.198642 C97.5462395,278.350992 97.7144492,278.492835 97.8826589,278.639931 C98.0712577,278.802788 98.2292729,278.944631 98.3974826,279.08122 C98.5656923,279.223063 98.7389993,279.359653 98.9123063,279.496242 C99.1110996,279.653845 99.2793093,279.785181 99.4526162,279.916517 C99.6259232,280.047853 99.8043275,280.179189 99.9827317,280.305272 C100.196817,280.462875 100.365027,280.583704 100.538334,280.704533 C100.701446,280.814855 100.859461,280.919924 101.027671,281.030246 L101.114324,281.088034 C101.292729,281.20361 101.47623,281.324439 101.659732,281.440015 C101.843233,281.55559 102.031832,281.671166 102.225528,281.781488 C102.429418,281.902317 102.618017,282.017893 102.806616,282.128215 C102.98502,282.22803 103.158327,282.317339 103.326537,282.411901 L103.484552,282.495956 C103.652762,282.585264 103.820972,282.674573 103.984084,282.763881 C104.182877,282.863697 104.366379,282.947752 104.554978,283.03706 L104.667117,283.094848 C104.850619,283.178903 105.029023,283.268211 105.207427,283.352267 C105.385832,283.425815 105.559139,283.504616 105.732446,283.578164 L105.829294,283.614938 C106.043379,283.7095 106.247269,283.798809 106.461354,283.882864 C106.624467,283.951159 106.802871,284.019453 106.986373,284.082495 L107.083221,284.119269 C107.312598,284.208577 107.516488,284.282125 107.720379,284.35042 C107.914075,284.418715 108.097576,284.481756 108.281078,284.539544 L108.362634,284.565811 C108.581816,284.639359 108.800999,284.707654 109.025278,284.770695 C109.229169,284.833736 109.448351,284.891524 109.667534,284.954566 C109.902008,285.017607 110.116093,285.075395 110.335275,285.127929 C110.54936,285.185717 110.77364,285.232998 110.992822,285.280279 L111.079476,285.301293 C111.278269,285.34332 111.477062,285.390601 111.675856,285.427375 C111.895038,285.474656 112.119318,285.51143 112.343597,285.548204 L112.623947,285.600739 L112.832935,285.637513 L113.092895,285.674287 L113.429314,285.721568 L113.526162,285.732075 C113.806512,285.768849 114.086862,285.805623 114.372308,285.83189 L114.851451,285.879171 C115.136898,285.905438 115.437637,285.926452 115.743472,285.942212 L115.89639,285.952719 L116.151254,285.968479 C116.533548,285.98424 116.910746,285.994747 117.303235,286 L117.869032,285.989493 C119.316655,285.973733 120.743888,285.852904 122.115053,285.637513 C126.753563,284.907285 131.08114,283.115862 134.97545,280.305272 C149.242692,270.444566 165.824092,265.038777 182.971289,264.644769 C183.644128,264.634262 184.322064,264.623755 185,264.623755 C185.683033,264.623755 186.355872,264.634262 187.033808,264.644769 C203.870072,265.033523 220.160928,270.250189 234.208988,279.743154 L234.254863,279.743154 L235.050036,280.305272 C240.065744,283.940652 245.978571,285.905438 252.130968,285.989493 L252.808905,286 C267.61136,285.852904 280.415687,274.463447 282.648289,259.386076 C282.882763,257.815297 283,256.202491 283,254.600192 C283,252.99264 282.882763,251.385088 282.648289,249.814309 C280.405493,234.684404 267.524706,223.263426 252.661084,223.195131 Z" id="Fill-19" stroke="#FFFFFF" stroke-width="6" fill="#17BC7E" transform="translate(185.000000, 185.000000) rotate(72.000000) translate(-185.000000, -185.000000) "></path>
            <path d="M318.569866,263.318261 C318.612135,263.099658 318.662837,262.881051 318.713534,262.670851 C318.764235,262.452244 318.806505,262.233642 318.857206,262.015035 L319.009315,261.350808 C319.06002,261.123794 319.110722,260.905187 319.152996,260.678177 C319.203697,260.45957 319.254403,260.232557 319.305108,260.005543 C319.355814,259.778529 319.406524,259.543108 319.465661,259.31609 C319.507935,259.089081 319.558641,258.862067 319.617782,258.626642 C319.660056,258.399632 319.719198,258.164207 319.769908,257.928786 C319.820618,257.693366 319.871328,257.457945 319.930469,257.22252 C319.981179,256.987099 320.031889,256.751678 320.082599,256.516257 L320.243165,255.801584 C320.302311,255.557752 320.353025,255.313924 320.403735,255.078503 L320.56431,254.347016 C320.623455,254.103184 320.67417,253.859356 320.73332,253.607117 C320.784034,253.363289 320.84318,253.119457 320.893898,252.867222 C320.953044,252.62339 321.012194,252.371151 321.062909,252.127324 C321.122059,251.875085 321.172777,251.62285 321.231928,251.370611 C321.282646,251.118376 321.341796,250.866137 321.400946,250.613898 C321.451665,250.361663 321.510815,250.109424 321.569965,249.857185 C321.620684,249.604951 321.679838,249.344305 321.738988,249.092066 C321.798143,248.83142 321.857293,248.579181 321.908016,248.318539 C321.967166,248.0663 322.02632,247.805654 322.085475,247.545008 L322.254507,246.763075 C322.313661,246.502429 322.372816,246.241783 322.43197,245.981137 C322.491124,245.720491 322.550279,245.459845 322.609433,245.199199 C322.66016,244.93015 322.719315,244.669504 322.786901,244.408854 C322.837628,244.139805 322.896783,243.879159 322.964373,243.610102 C323.0151,243.341053 323.074254,243.080407 323.141845,242.81135 C323.192568,242.550708 323.260158,242.281651 323.319317,242.012598 C323.370044,241.74355 323.437634,241.474492 323.496793,241.20544 C323.555952,240.936387 323.615111,240.667334 323.674269,240.398281 C323.733428,240.129228 323.792587,239.860175 323.860177,239.591118 C323.910904,239.322069 323.978495,239.053012 324.037658,238.775552 C324.096816,238.506499 324.155975,238.237446 324.215138,237.959986 C324.274297,237.690933 324.341887,237.421876 324.40105,237.144416 C324.460209,236.875363 324.519372,236.597903 324.578531,236.32885 C324.646126,236.051386 324.705284,235.782333 324.764447,235.504873 C324.823606,235.23582 324.891201,234.958356 324.950364,234.680896 C325.009523,234.411843 325.068686,234.134383 325.127849,233.856923 C325.195443,233.579459 325.254602,233.310406 325.313765,233.032946 C325.38136,232.755482 325.440523,232.478022 325.499681,232.208969 C325.558845,231.931509 325.626439,231.654045 325.685602,231.376585 C325.744765,231.099126 325.81236,230.821661 325.871523,230.544201 C325.930686,230.266742 325.989845,229.997689 326.057439,229.720224 C326.116602,229.442764 326.175765,229.165305 326.234929,228.887845 C326.302523,228.61038 326.361686,228.332921 326.420849,228.055461 L326.60677,227.223077 C326.674365,226.945612 326.733528,226.668153 326.792691,226.390693 C326.860285,226.113229 326.919448,225.835769 326.978611,225.558309 C327.046206,225.280845 327.105369,225.003385 327.164532,224.725925 C327.223695,224.448465 327.29129,224.171001 327.350453,223.893541 C327.409612,223.624488 327.477206,223.347024 327.536369,223.069564 C327.595532,222.792104 327.654695,222.514644 327.72229,222.23718 C327.781453,221.95972 327.840616,221.68226 327.908211,221.404796 C327.96737,221.135743 328.026533,220.858283 328.094127,220.580819 C328.15329,220.303359 328.212453,220.025899 328.271612,219.756846 C328.330775,219.479386 328.39837,219.201922 328.457533,218.924462 C328.516692,218.655409 328.584286,218.377945 328.643449,218.100485 C328.702608,217.831432 328.761771,217.553972 328.82093,217.284919 C328.888525,217.007455 328.947683,216.738402 329.006846,216.460942 C329.066005,216.191889 329.1336,215.914425 329.184327,215.645376 C329.251921,215.367912 329.31108,215.098859 329.370239,214.829806 C329.429398,214.560753 329.496992,214.283289 329.547719,214.014241 C329.61531,213.745183 329.674469,213.47613 329.733627,213.207077 C329.79279,212.929618 329.851949,212.660565 329.911108,212.391512 C329.970267,212.122459 330.037857,211.853401 330.08858,211.59276 C330.15617,211.323703 330.215329,211.05465 330.266056,210.785601 C330.333646,210.516544 330.384369,210.255902 330.45196,209.986845 C330.511118,209.717792 330.561841,209.45715 330.629432,209.188093 C330.688586,208.927447 330.739313,208.658398 330.798468,208.397752 C330.857622,208.137107 330.916781,207.868054 330.975935,207.607408 C331.03509,207.346762 331.094244,207.086116 331.153399,206.82547 C331.212553,206.564824 331.271708,206.304178 331.330862,206.043532 C331.390016,205.782886 331.440739,205.522244 331.499889,205.270005 C331.559044,205.009359 331.618198,204.748713 331.668917,204.496478 C331.728071,204.235833 331.787221,203.983594 331.837944,203.722952 C331.897094,203.470713 331.956245,203.218474 332.015395,202.966235 C332.066113,202.714 332.125263,202.461761 332.184418,202.201115 C332.235132,201.957287 332.294282,201.705048 332.345001,201.452814 C332.404151,201.200575 332.463301,200.948336 332.514015,200.704508 C332.573166,200.452269 332.632311,200.208437 332.683026,199.964609 C332.733744,199.712374 332.79289,199.468542 332.852036,199.22471 L333.01261,198.493223 C333.063325,198.249395 333.114039,198.005567 333.17318,197.770142 L333.33375,197.047062 C333.38446,196.811641 333.435175,196.567813 333.494316,196.332388 C333.545026,196.096967 333.595736,195.861547 333.646446,195.626126 C333.705588,195.390701 333.747866,195.155284 333.807003,194.928266 C333.857713,194.692845 333.908419,194.465831 333.959129,194.230411 C334.009834,194.003397 334.060544,193.767976 334.11125,193.540962 C334.161956,193.313948 334.212661,193.086935 334.263367,192.859921 C334.314068,192.641314 334.364774,192.4143 334.41548,192.187286 C334.457749,191.968684 334.508455,191.74167 334.559156,191.523063 L334.71126,190.867243 C334.75353,190.64864 334.804232,190.430033 334.854933,190.211426 C334.897198,190.001231 334.9479,189.782624 334.998597,189.572424 C335.040862,189.362228 335.091559,189.152028 335.142261,188.933422 C335.184522,188.731633 335.235219,188.521433 335.277484,188.311238 L335.412708,187.689053 C335.463401,187.48726 335.505662,187.285472 335.547923,187.083683 C335.598616,186.88189 335.640877,186.680102 335.683138,186.478313 C335.725395,186.284931 335.776088,186.083138 335.818345,185.889757 C335.860602,185.696375 335.902863,185.494587 335.94512,185.301205 C335.987372,185.11623 336.029629,184.922849 336.071886,184.729467 C336.114138,184.544492 336.156395,184.35111 336.198648,184.166136 C336.2409,183.981161 336.283153,183.796186 336.325406,183.611212 C336.367658,183.426237 336.401479,183.241267 336.443727,183.064699 C336.485976,182.888131 336.528228,182.703156 336.562045,182.526593 C336.604293,182.350025 336.646541,182.173458 336.680358,181.996894 C336.722602,181.828733 336.756419,181.65217 336.798663,181.484009 C336.832475,181.315853 336.874719,181.147692 336.908531,180.979535 C336.942344,180.811379 336.984583,180.651625 337.018396,180.483469 C337.060635,180.323715 337.094443,180.163965 337.128256,179.995809 C337.162064,179.836059 337.195868,179.684717 337.238107,179.524963 C337.263479,179.373625 337.305719,179.213871 337.339523,179.062528 C337.373327,178.911186 337.407131,178.759843 337.432503,178.608505 C337.466302,178.465569 337.500106,178.314227 337.533905,178.171291 C337.905747,176.506523 337.839358,174.421631 336.693251,173.25365 C335.504965,172.127725 333.413936,172.095166 331.752701,172.491142 C331.609346,172.524843 331.45756,172.558549 331.314205,172.59225 C331.162414,172.634362 331.010627,172.668068 330.867272,172.701769 C330.707054,172.735479 330.555263,172.777591 330.403476,172.811296 C330.243254,172.853413 330.083035,172.887123 329.922817,172.920833 C329.762594,172.962949 329.602376,172.996659 329.442154,173.038776 C329.273499,173.080897 329.113281,173.114606 328.944627,173.156727 C328.775973,173.198848 328.607323,173.232562 328.438668,173.274684 C328.270014,173.316805 328.10136,173.358926 327.924274,173.401051 C327.75562,173.443172 327.578534,173.485297 327.401448,173.527422 C327.224362,173.569548 327.047276,173.611673 326.861759,173.653803 C326.684673,173.695928 326.499156,173.738058 326.32207,173.780183 L325.765513,173.914979 C325.571564,173.957113 325.386046,173.999242 325.200529,174.041372 C325.006575,174.091913 324.812626,174.134047 324.618673,174.184588 C324.433155,174.226717 324.239202,174.277258 324.045253,174.319392 C323.842868,174.369937 323.648919,174.412071 323.446534,174.462617 C323.244153,174.504755 323.050199,174.555296 322.847814,174.605841 C322.645434,174.647979 322.443048,174.698524 322.240663,174.74907 C322.029847,174.799619 321.827466,174.841757 321.625081,174.892303 C321.414264,174.942852 321.203447,174.993402 320.992631,175.043951 C320.781814,175.094501 320.570997,175.14505 320.360181,175.1956 C320.140932,175.246154 319.930116,175.296703 319.710867,175.347257 C319.500051,175.397806 319.280802,175.44836 319.061554,175.498914 C318.842306,175.549468 318.631489,175.600017 318.412236,175.658978 L317.74606,175.810644 C317.518375,175.869609 317.290695,175.920167 317.071447,175.970721 C316.843763,176.029686 316.616083,176.080244 316.388403,176.130803 C316.160719,176.189768 315.933039,176.240326 315.705354,176.299291 C315.469243,176.349853 315.241558,176.408818 315.005447,176.459381 C314.769331,176.51835 314.541651,176.568908 314.305535,176.627878 C314.069419,176.686847 313.833307,176.73741 313.597192,176.796379 C313.361076,176.855349 313.124964,176.905911 312.888848,176.96488 C312.652732,177.02385 312.408185,177.082824 312.163641,177.13339 C311.927526,177.19236 311.682978,177.251333 311.43843,177.310307 C311.202315,177.369277 310.957767,177.42825 310.713224,177.478817 C310.468676,177.537791 310.215697,177.596769 309.971149,177.655742 C309.726602,177.714716 309.482054,177.77369 309.229075,177.832668 C308.984528,177.891642 308.731548,177.95062 308.487001,178.009593 C308.234022,178.068571 307.981043,178.12755 307.736495,178.186523 C307.475084,178.245506 307.222105,178.304484 306.969122,178.371869 C306.716142,178.430847 306.463163,178.489825 306.210184,178.548803 C305.957205,178.607781 305.695794,178.666763 305.44281,178.734148 C305.1814,178.79313 304.92842,178.852108 304.66701,178.911091 C304.405595,178.97848 304.152615,179.037458 303.891205,179.09644 C303.638221,179.163825 303.368379,179.222812 303.115399,179.28179 C302.853984,179.349179 302.592574,179.408162 302.331163,179.467144 C302.069748,179.534533 301.799905,179.59352 301.53849,179.660909 C301.277079,179.719892 301.015668,179.778874 300.745822,179.846268 C300.484411,179.90525 300.214564,179.972644 299.953153,180.031626 C299.683306,180.09902 299.421896,180.158002 299.152049,180.225396 C298.890638,180.284378 298.620791,180.351772 298.350949,180.410758 C298.081102,180.478152 297.81126,180.537138 297.549845,180.604528 C297.279998,180.671921 297.010155,180.730908 296.740309,180.798302 C296.470466,180.857288 296.200619,180.924682 295.930773,180.992075 C295.652499,181.051066 295.382652,181.11846 295.112809,181.177447 C294.842963,181.24484 294.564684,181.312238 294.294842,181.371225 C294.024995,181.438619 293.755148,181.506012 293.485306,181.564999 C293.207027,181.632397 292.937181,181.69979 292.658902,181.767188 C292.38906,181.826175 292.110781,181.893573 291.840935,181.960966 C291.562661,182.019957 291.292814,182.087351 291.014535,182.154749 C290.736257,182.222147 290.466415,182.281134 290.188136,182.348531 C289.918289,182.415925 289.640011,182.483323 289.361737,182.542314 L288.535333,182.744503 C288.257059,182.803494 287.987213,182.870888 287.708934,182.938286 L286.882535,183.132068 C286.604257,183.199466 286.325978,183.266864 286.0477,183.334262 C285.777857,183.393249 285.499579,183.460647 285.221301,183.528045 C284.943022,183.595443 284.664744,183.662841 284.38647,183.721831 C284.108191,183.789229 283.838345,183.856623 283.560066,183.924021 C283.281788,183.991419 283.003514,184.05041 282.725235,184.117808 C282.446957,184.185206 282.168678,184.252604 281.898832,184.319997 C281.620558,184.378988 281.342279,184.446386 281.064001,184.513784 C280.785722,184.581182 280.515876,184.648576 280.22917,184.707571 C279.959323,184.774964 279.681045,184.842362 279.402766,184.90976 C279.124492,184.968751 278.854646,185.036145 278.576367,185.103543 C278.298089,185.170941 278.01981,185.238339 277.741536,185.29733 C277.47169,185.364723 277.193411,185.432121 276.923564,185.499515 C276.645286,185.566913 276.367012,185.625904 276.097165,185.693297 C275.818887,185.760695 275.549044,185.819682 275.270766,185.88708 C274.992488,185.954478 274.722641,186.021871 274.444367,186.080862 C274.17452,186.148256 273.896242,186.215654 273.626399,186.27464 C273.348121,186.342038 273.078274,186.409432 272.808432,186.468419 C272.538585,186.535812 272.260306,186.60321 271.990464,186.662197 C271.720617,186.72959 271.45077,186.796984 271.180928,186.855971 C270.90265,186.923369 270.632803,186.990762 270.36296,187.049749 C270.093114,187.117142 269.823271,187.176129 269.553424,187.243523 C269.283578,187.310916 269.013735,187.369903 268.743888,187.437297 C268.482478,187.496279 268.212631,187.563673 267.942788,187.622659 C267.681373,187.690049 267.411531,187.749035 267.141684,187.816429 C266.880273,187.875411 266.610427,187.942805 266.349016,188.001787 C266.079169,188.069181 265.817758,188.128163 265.556343,188.195552 L264.763675,188.380911 C264.502264,188.439893 264.232417,188.507287 263.979438,188.566265 C263.709591,188.633658 263.456612,188.692636 263.195201,188.751619 C262.93379,188.810601 262.672375,188.87799 262.410964,188.936973 C262.157985,188.995951 261.89657,189.06334 261.635159,189.122322 C261.38218,189.1813 261.129201,189.240278 260.867786,189.307668 C260.614807,189.366646 260.353396,189.425628 260.108848,189.484602 C259.847437,189.543584 259.594458,189.602562 259.341479,189.66154 C259.088496,189.728925 258.843948,189.787899 258.582537,189.846881 C258.33799,189.905855 258.08501,189.964833 257.840463,190.023807 C257.587484,190.082785 257.334505,190.141763 257.089957,190.200736 C256.845409,190.25971 256.600862,190.318684 256.347883,190.377662 C256.103335,190.436636 255.858788,190.495609 255.614244,190.546176 L254.889033,190.723093 C254.644486,190.782067 254.408374,190.832629 254.163827,190.891603 L253.447052,191.060109 C253.210936,191.119078 252.97482,191.178047 252.738708,191.22861 C252.502592,191.287579 252.266476,191.346549 252.038796,191.397107 C251.802681,191.456076 251.566569,191.506639 251.338885,191.565604 C251.102773,191.616166 250.875089,191.675131 250.647409,191.725689 C250.419725,191.784655 250.192045,191.835213 249.964365,191.885771 C249.73668,191.944736 249.509,191.995294 249.281316,192.054259 C249.062068,192.104813 248.842819,192.155367 248.615139,192.205925 C248.395887,192.264886 248.176638,192.31544 247.95739,192.365993 C247.738142,192.416547 247.518893,192.467101 247.299641,192.526062 C247.080392,192.576616 246.869576,192.627165 246.650327,192.677719 C243.066456,193.51184 239.2468,193.757594 235.848077,195.272584 C232.027678,196.972743 233.974126,199.443394 237.076338,200.677631 C237.523121,200.862356 237.978335,201.047076 238.425117,201.231801 C238.8719,201.416526 239.318682,201.60125 239.76546,201.794382 C240.22067,201.987509 240.659021,202.172239 241.105795,202.373777 C241.552573,202.566909 241.999347,202.768447 242.446125,202.961579 C242.892899,203.163118 243.331237,203.373068 243.778011,203.574606 C244.216349,203.784556 244.663123,203.986095 245.10146,204.196045 C245.539798,204.405995 245.978132,204.624352 246.416466,204.842708 C246.854804,205.052658 247.293137,205.271015 247.731467,205.497779 C248.1698,205.716136 248.599702,205.934497 249.038032,206.161261 C249.476361,206.388025 249.906259,206.614793 250.336152,206.849968 C250.774482,207.076732 251.204375,207.311907 251.634269,207.547082 C252.064162,207.782257 252.494051,208.025839 252.92394,208.269421 C253.353834,208.504596 253.783723,208.748178 254.205176,209.000172 C254.635065,209.243754 255.056519,209.495747 255.486404,209.747736 C255.907861,209.991323 256.32931,210.251723 256.759195,210.503712 C257.180644,210.764112 257.602097,211.016106 258.01511,211.284917 C258.436559,211.545317 258.858008,211.805718 259.271021,212.074529 C259.692466,212.343337 260.11391,212.612144 260.526923,212.880955 C260.939932,213.158174 261.352945,213.426985 261.765954,213.704204 C262.187394,213.981418 262.591971,214.258641 263.004976,214.544267 C263.41798,214.829892 263.822557,215.107115 264.235557,215.401147 C264.64013,215.686777 265.044703,215.972407 265.449271,216.266444 C265.862271,216.560476 266.26684,216.854513 266.662977,217.148554 C267.067541,217.450998 267.472105,217.753441 267.868238,218.055889 C268.272802,218.358333 268.668935,218.660781 269.073499,218.963225 C269.469627,219.27408 269.865755,219.584935 270.261884,219.89579 C270.658012,220.206645 271.045704,220.525911 271.441828,220.845173 C271.829521,221.164439 272.225645,221.483701 272.613337,221.802968 C273.001025,222.130641 273.388717,222.449907 273.776401,222.785987 C274.164089,223.11366 274.551777,223.441334 274.931029,223.777418 C275.318718,224.105091 275.69797,224.441176 276.085653,224.777256 C276.45647,225.121752 276.844153,225.457832 277.21497,225.802328 C277.594217,226.146819 277.973465,226.491311 278.352709,226.844209 C278.723525,227.188705 279.094337,227.541608 279.465149,227.89451 C279.835961,228.247413 280.206769,228.608723 280.57758,228.961626 C280.720845,229.104471 280.86411,229.247316 281.015807,229.390157 L281.125362,229.499391 C281.159067,229.541409 281.201209,229.575015 281.234918,229.608625 C281.378183,229.751471 281.529879,229.894311 281.673144,230.037156 C282.03552,230.39847 282.397896,230.759784 282.760268,231.129505 C283.122644,231.490819 283.476584,231.860545 283.830524,232.23027 C284.184464,232.599995 284.538404,232.96972 284.883913,233.33945 C285.237853,233.709175 285.583361,234.078905 285.937297,234.457037 C286.282801,234.835174 286.619878,235.204908 286.965382,235.583044 C287.302455,235.961185 287.639527,236.339326 287.976595,236.725874 C288.305236,237.104019 288.642304,237.490567 288.970945,237.868712 C289.299582,238.255264 289.628218,238.641816 289.948423,239.028372 C290.27706,239.414925 290.597265,239.801481 290.91747,240.188037 C291.237675,240.574594 291.549444,240.969562 291.869648,241.356118 C292.181417,241.751086 292.493186,242.146053 292.804955,242.541021 C293.116724,242.935989 293.420062,243.330961 293.723399,243.725933 C294.026732,244.129312 294.33007,244.524284 294.633403,244.927663 C294.928308,245.322639 295.231642,245.726018 295.518111,246.129406 C295.813013,246.532789 296.107914,246.936172 296.394384,247.33956 C296.680854,247.742948 296.975751,248.154738 297.253789,248.55813 C297.531823,248.969929 297.818293,249.373316 298.096327,249.785115 C298.37436,250.196914 298.652394,250.608713 298.921997,251.020516 C299.20003,251.432315 299.469633,251.844118 299.739231,252.264328 C300.008833,252.676131 300.278435,253.087935 300.539601,253.508149 C300.800768,253.928363 301.061938,254.340171 301.3231,254.768792 C301.575839,255.180604 301.837006,255.600819 302.089736,256.029444 C302.342471,256.449663 302.595205,256.869882 302.839504,257.298512 C303.092239,257.718731 303.336537,258.147361 303.58084,258.567584 C303.825139,258.996214 304.061006,259.424848 304.305305,259.853478 C304.541172,260.282113 304.777039,260.710747 305.012906,261.139381 C305.240342,261.56802 305.467777,261.996659 305.70364,262.4337 C305.931075,262.862339 306.150075,263.299388 306.37751,263.728027 C306.59651,264.165077 306.823941,264.602123 307.034509,265.039177 C307.253509,265.476227 307.472508,265.913277 307.683076,266.350331 C307.893644,266.787385 308.104212,267.224439 308.31478,267.661494 C308.525343,268.106955 308.727479,268.544013 308.929611,268.989479 C309.131748,269.426537 309.33388,269.872003 309.52758,270.317473 C309.729716,270.754531 309.923417,271.200001 310.117117,271.645471 C310.310817,272.090941 310.504518,272.536411 310.681355,272.981889 C311.969829,276.049771 314.481484,277.956866 316.12761,274.122451 C317.596456,270.708475 317.783896,266.900027 318.569866,263.318261 Z" id="Fill-14" fill="#FFFFFF" transform="translate(285.735992, 224.261119) rotate(69.000000) translate(-285.735992, -224.261119) "></path>
            <path d="M301.76207,244.021978 C301.778327,243.9379 301.797828,243.85382 301.817327,243.772974 C301.836827,243.688894 301.853085,243.604817 301.872585,243.520737 L301.931088,243.265265 C301.950591,243.177952 301.970091,243.093872 301.98635,243.006561 C302.005851,242.922481 302.025353,242.835168 302.044855,242.747855 C302.064357,242.660542 302.083861,242.569996 302.106606,242.482681 C302.122866,242.39537 302.142368,242.308057 302.165115,242.217509 C302.181374,242.130197 302.204121,242.039649 302.223624,241.949103 C302.243128,241.858556 302.262632,241.76801 302.285379,241.677462 C302.304883,241.586915 302.324386,241.496369 302.34389,241.405822 L302.405646,241.130948 C302.428395,241.037166 302.4479,240.943387 302.467404,240.85284 L302.529163,240.571499 C302.551912,240.477717 302.571417,240.383937 302.594167,240.286922 C302.613673,240.193142 302.636421,240.099361 302.655928,240.002347 C302.678677,239.908566 302.701427,239.811551 302.720932,239.717771 C302.743682,239.620756 302.76319,239.523743 302.78594,239.426728 C302.805447,239.329714 302.828197,239.232699 302.850947,239.135684 C302.870454,239.038671 302.893204,238.941656 302.915954,238.844641 C302.935461,238.747628 302.958213,238.647379 302.980963,238.550364 C303.003715,238.450116 303.026465,238.353101 303.045974,238.252854 C303.068724,238.155839 303.091475,238.05559 303.114227,237.955342 L303.179239,237.654598 C303.201991,237.55435 303.224743,237.454101 303.247494,237.353853 C303.270246,237.253605 303.292998,237.153356 303.31575,237.053108 C303.33526,236.949627 303.358012,236.849379 303.384006,236.749129 C303.403517,236.645649 303.426268,236.5454 303.452265,236.441917 C303.471775,236.338436 303.494527,236.238188 303.520523,236.134704 C303.540032,236.034458 303.566028,235.930974 303.588782,235.827492 C303.608292,235.724012 303.634288,235.620528 303.657042,235.517046 C303.679795,235.413564 303.702548,235.310083 303.725302,235.206601 C303.748055,235.103119 303.770809,234.999637 303.796805,234.896153 C303.816315,234.792673 303.842312,234.68919 303.865067,234.582474 C303.88782,234.478992 303.910573,234.37551 303.933328,234.268795 C303.956082,234.165313 303.982078,234.06183 304.004833,233.955114 C304.027586,233.851632 304.050341,233.744917 304.073095,233.641435 C304.099093,233.534718 304.121846,233.431236 304.144601,233.324521 C304.167354,233.221039 304.193352,233.114322 304.216107,233.007607 C304.238861,232.904125 304.261616,232.797409 304.284371,232.690694 C304.310369,232.583977 304.333122,232.480495 304.355877,232.37378 C304.381875,232.267063 304.40463,232.160347 304.427383,232.056866 C304.450138,231.95015 304.476136,231.843433 304.498891,231.736718 C304.521646,231.630003 304.547644,231.523286 304.570399,231.41657 C304.593154,231.309855 304.615908,231.206373 304.641906,231.099656 C304.664661,230.992941 304.687416,230.886225 304.710171,230.77951 C304.736169,230.672793 304.758924,230.566078 304.781679,230.459362 L304.853187,230.139215 C304.879185,230.032498 304.90194,229.925782 304.924695,229.819067 C304.950693,229.71235 304.973448,229.605635 304.996203,229.498919 C305.022201,229.392202 305.044956,229.285487 305.067711,229.178771 C305.090466,229.072056 305.116464,228.965339 305.139219,228.858624 C305.161972,228.755142 305.18797,228.648425 305.210725,228.54171 C305.23348,228.434994 305.256235,228.328279 305.282233,228.221562 C305.304988,228.114847 305.327743,228.008131 305.353741,227.901414 C305.376494,227.797932 305.399249,227.691217 305.425247,227.5845 C305.448002,227.477785 305.470757,227.371069 305.493511,227.267587 C305.516266,227.160872 305.542264,227.054155 305.565019,226.94744 C305.587772,226.843958 305.61377,226.737241 305.636525,226.630525 C305.659278,226.527043 305.682033,226.420328 305.704787,226.316846 C305.730785,226.210129 305.753538,226.106647 305.776293,225.999932 C305.799046,225.89645 305.825044,225.789733 305.844555,225.686253 C305.870553,225.579536 305.893306,225.476054 305.916059,225.372572 C305.938813,225.26909 305.964811,225.162373 305.984321,225.058893 C306.010317,224.955409 306.033071,224.851927 306.055824,224.748446 C306.078579,224.64173 306.101333,224.538248 306.124086,224.434766 C306.146839,224.331285 306.172836,224.227801 306.192344,224.127554 C306.218341,224.024071 306.241094,223.920589 306.260604,223.817109 C306.286601,223.713625 306.306109,223.613378 306.332106,223.509895 C306.354859,223.406413 306.374368,223.306166 306.400364,223.202682 C306.423116,223.102434 306.442626,222.998954 306.465378,222.898705 C306.48813,222.798457 306.510883,222.694975 306.533635,222.594726 C306.556387,222.494478 306.579138,222.39423 306.60189,222.293981 C306.624642,222.193733 306.647393,222.093484 306.670145,221.993236 C306.692897,221.892987 306.712406,221.79274 306.735156,221.695725 C306.757907,221.595477 306.780659,221.495229 306.800166,221.398215 C306.822918,221.297967 306.845668,221.200952 306.865177,221.100705 C306.887927,221.00369 306.910677,220.906675 306.933427,220.80966 C306.952934,220.712647 306.975684,220.615632 306.998436,220.515383 C307.017941,220.421603 307.040691,220.324588 307.060199,220.227575 C307.082949,220.13056 307.105699,220.033545 307.125204,219.939765 C307.147954,219.84275 307.170703,219.748968 307.190208,219.655189 C307.209715,219.558175 307.232464,219.464394 307.255212,219.370612 L307.316971,219.089271 C307.336477,218.995491 307.355982,218.901711 307.378729,218.811163 L307.440487,218.533055 C307.459991,218.442508 307.479496,218.348729 307.502243,218.25818 C307.521747,218.167634 307.541251,218.077088 307.560754,217.986541 C307.583501,217.895993 307.599762,217.805448 307.622507,217.718134 C307.642011,217.627587 307.661513,217.540274 307.681017,217.449728 C307.700519,217.362415 307.720023,217.271868 307.739525,217.184555 C307.759027,217.097242 307.778529,217.009929 307.798032,216.922616 C307.817532,216.838537 307.837034,216.751224 307.856537,216.663911 C307.872794,216.579833 307.892296,216.49252 307.911797,216.40844 L307.970298,216.156201 C307.986556,216.072124 308.006057,215.988044 308.025557,215.903964 C308.041813,215.82312 308.061314,215.73904 308.080812,215.658194 C308.097068,215.57735 308.116567,215.496504 308.136068,215.412424 C308.152322,215.334813 308.171821,215.253967 308.188077,215.173123 L308.240086,214.933821 C308.259583,214.856208 308.275837,214.778597 308.292092,214.700986 C308.311589,214.623374 308.327843,214.545763 308.344098,214.468152 C308.36035,214.393774 308.379847,214.316161 308.3961,214.241784 C308.412353,214.167406 308.428607,214.089795 308.44486,214.015418 C308.461111,213.944274 308.477363,213.869896 308.493616,213.795518 C308.509867,213.724374 308.526119,213.649997 308.54237,213.578853 C308.558621,213.507709 308.574872,213.436564 308.591123,213.36542 C308.607374,213.294276 308.620382,213.223134 308.636632,213.155223 C308.652881,213.087312 308.669132,213.016168 308.682139,212.948259 C308.698388,212.880349 308.714637,212.812438 308.727644,212.744529 C308.743891,212.679852 308.756898,212.611943 308.773145,212.547265 C308.78615,212.48259 308.802398,212.417913 308.815403,212.353237 C308.828407,212.288562 308.844653,212.227118 308.857658,212.162442 C308.873904,212.100998 308.886907,212.039556 308.899912,211.974881 C308.912915,211.913439 308.925917,211.85523 308.942163,211.793786 C308.951921,211.735579 308.968167,211.674135 308.981169,211.615927 C308.99417,211.557718 309.007171,211.499509 309.01693,211.441302 C309.02993,211.386327 309.042931,211.328118 309.055931,211.273143 C309.198947,210.632848 309.173413,209.830966 308.732602,209.381743 C308.275569,208.948695 307.471327,208.936172 306.832391,209.088471 C306.777254,209.101432 306.718875,209.114396 306.663738,209.127358 C306.605357,209.143555 306.546978,209.156519 306.491841,209.169481 C306.430219,209.182446 306.371838,209.198643 306.313458,209.211607 C306.251834,209.227805 306.190212,209.240771 306.128589,209.253736 C306.066965,209.269935 306.005343,209.2829 305.943719,209.299099 C305.878852,209.315299 305.817229,209.328264 305.752362,209.344465 C305.687495,209.360665 305.62263,209.373632 305.557763,209.389833 C305.492896,209.406033 305.428029,209.422233 305.359919,209.438435 C305.295052,209.454636 305.226942,209.470838 305.158832,209.48704 C305.090722,209.503242 305.022612,209.519444 304.951259,209.535648 C304.883149,209.55185 304.811797,209.568053 304.743687,209.584255 L304.529626,209.6361 C304.45503,209.652305 304.383678,209.668509 304.312325,209.684713 C304.237727,209.704152 304.163131,209.720357 304.088534,209.739796 C304.017181,209.755999 303.942584,209.775438 303.867988,209.791644 C303.790147,209.811084 303.715552,209.827289 303.637711,209.84673 C303.559872,209.862937 303.485275,209.882376 303.407434,209.901816 C303.329596,209.918023 303.251755,209.937464 303.173915,209.956904 C303.092832,209.976346 303.014993,209.992553 302.937152,210.011994 C302.856069,210.031436 302.774986,210.050878 302.693902,210.07032 C302.612819,210.089762 302.531736,210.109204 302.450652,210.128646 C302.366326,210.14809 302.285243,210.167532 302.200916,210.186976 C302.119833,210.206418 302.035507,210.225862 301.951181,210.245306 C301.866854,210.26475 301.785771,210.284192 301.701443,210.306869 L301.445221,210.365202 C301.35765,210.387881 301.270081,210.407326 301.185755,210.42677 C301.098184,210.449449 301.010615,210.468894 300.923045,210.48834 C300.835475,210.511019 300.747905,210.530464 300.660334,210.553143 C300.569522,210.57259 300.481951,210.595269 300.391139,210.614716 C300.300325,210.637397 300.212756,210.656842 300.121942,210.679523 C300.031129,210.702203 299.940316,210.72165 299.849503,210.744331 C299.758689,210.767011 299.667877,210.786458 299.577063,210.809139 C299.486249,210.83182 299.392192,210.854502 299.298137,210.873951 C299.207323,210.896631 299.113267,210.919313 299.01921,210.941995 C298.928396,210.964676 298.834339,210.987358 298.740284,211.006807 C298.646228,211.029489 298.548928,211.052173 298.454871,211.074855 C298.360814,211.097537 298.266758,211.12022 298.169458,211.142903 C298.075401,211.165586 297.978101,211.18827 297.884045,211.210952 C297.786745,211.233636 297.689445,211.256319 297.595389,211.279002 C297.494846,211.301687 297.397546,211.324371 297.300245,211.350288 C297.202945,211.372972 297.105646,211.395656 297.008346,211.41834 C296.911046,211.441024 296.810504,211.463709 296.713202,211.489627 C296.61266,211.512312 296.51536,211.534996 296.414817,211.557681 C296.314273,211.5836 296.216973,211.606284 296.116431,211.62897 C296.019129,211.654887 295.915344,211.677574 295.818044,211.700258 C295.7175,211.726177 295.616957,211.748863 295.516415,211.771548 C295.41587,211.797467 295.312085,211.820154 295.211541,211.846073 C295.110998,211.868759 295.010455,211.891444 294.906668,211.917365 C294.806125,211.94005 294.702338,211.965971 294.601796,211.988657 C294.498008,212.014577 294.397466,212.037263 294.293679,212.063183 C294.193136,212.085869 294.089349,212.111789 293.985563,212.134477 C293.881776,212.160397 293.77799,212.183084 293.677446,212.209003 C293.573659,212.234924 293.469873,212.257611 293.366086,212.283532 C293.262301,212.306219 293.158513,212.33214 293.054726,212.35806 C292.947698,212.380749 292.84391,212.40667 292.740125,212.429357 C292.636338,212.455277 292.529308,212.4812 292.425522,212.503887 C292.321735,212.529808 292.217948,212.555728 292.114162,212.578415 C292.007132,212.604338 291.903345,212.630258 291.796314,212.656181 C291.692529,212.678868 291.585499,212.70479 291.481712,212.730711 C291.374683,212.753399 291.270896,212.77932 291.163866,212.805242 C291.056836,212.831165 290.95305,212.853852 290.84602,212.879774 C290.742233,212.905695 290.635202,212.931617 290.528174,212.954306 L290.210326,213.032071 C290.103298,213.05476 289.999511,213.08068 289.892481,213.106603 L289.574635,213.181134 C289.467605,213.207057 289.360574,213.232979 289.253544,213.258901 C289.149759,213.281588 289.042729,213.307511 288.935698,213.333433 C288.828668,213.359355 288.721638,213.385278 288.61461,213.407966 C288.507579,213.433889 288.403792,213.459809 288.296762,213.485732 C288.189732,213.511654 288.082703,213.534343 287.975673,213.560265 C287.868643,213.586187 287.761613,213.612109 287.657826,213.63803 C287.550797,213.660719 287.443767,213.686641 287.336737,213.712564 C287.229707,213.738486 287.12592,213.764406 287.015648,213.787097 C286.911861,213.813018 286.804831,213.83894 286.697801,213.864862 C286.590772,213.887551 286.486985,213.913472 286.379955,213.939394 C286.272925,213.965316 286.165895,213.991238 286.058866,214.013927 C285.955079,214.039848 285.848049,214.06577 285.744261,214.091691 C285.637231,214.117613 285.530203,214.140302 285.426416,214.166222 C285.319385,214.192145 285.2156,214.214832 285.10857,214.240754 C285.00154,214.266676 284.897752,214.292597 284.790724,214.315286 C284.686937,214.341207 284.579907,214.367129 284.476121,214.389816 C284.369091,214.415738 284.265304,214.441659 284.161518,214.464346 C284.057731,214.490267 283.950701,214.516189 283.846915,214.538876 C283.743128,214.564797 283.639341,214.590717 283.535555,214.613405 C283.428525,214.639327 283.324738,214.665247 283.220952,214.687935 C283.117165,214.713855 283.013379,214.736542 282.909592,214.762463 C282.805805,214.788384 282.702019,214.811071 282.598232,214.836991 C282.49769,214.859677 282.393902,214.885598 282.290117,214.908285 C282.189573,214.934204 282.085787,214.956891 281.982,214.982812 C281.881457,215.005497 281.77767,215.031418 281.677127,215.054103 C281.57334,215.080024 281.472798,215.102709 281.372253,215.128628 L281.067381,215.19992 C280.966838,215.222605 280.863051,215.248526 280.765751,215.27121 C280.661964,215.297131 280.564664,215.319814 280.464122,215.3425 C280.363579,215.365185 280.263035,215.391104 280.162492,215.41379 C280.065193,215.436474 279.964648,215.462393 279.864106,215.485078 C279.766806,215.507762 279.669506,215.530446 279.568962,215.556365 C279.471662,215.579049 279.37112,215.601734 279.277063,215.624416 C279.17652,215.647102 279.079221,215.669786 278.981921,215.69247 C278.88462,215.718387 278.790563,215.741069 278.69002,215.763755 C278.595963,215.786437 278.498664,215.809121 278.404607,215.831803 C278.307307,215.854487 278.210008,215.877171 278.115951,215.899853 C278.021894,215.922535 277.927837,215.945217 277.830538,215.967901 C277.736481,215.990583 277.642424,216.013266 277.548369,216.032714 L277.269442,216.100759 C277.175385,216.123441 277.084573,216.142889 276.990516,216.165571 L276.714833,216.230381 C276.62402,216.253061 276.533206,216.275742 276.442394,216.295189 C276.35158,216.317869 276.260766,216.34055 276.173197,216.359995 C276.082383,216.382676 275.991571,216.402123 275.904,216.424802 C275.813188,216.444249 275.725617,216.466928 275.638048,216.486373 C275.550477,216.509052 275.462908,216.528498 275.375338,216.547943 C275.287768,216.570622 275.200198,216.590067 275.112627,216.612746 C275.028301,216.63219 274.943975,216.651634 274.856406,216.671079 C274.772078,216.693756 274.687751,216.7132 274.603425,216.732644 C274.519099,216.752088 274.434773,216.771532 274.350445,216.794209 C274.266118,216.813653 274.185035,216.833095 274.100709,216.852539 C272.722297,217.173354 271.253198,217.267875 269.945997,217.850564 C268.476613,218.504471 269.225247,219.454721 270.418405,219.929428 C270.590245,220.000476 270.765327,220.071522 270.937166,220.14257 C271.109006,220.213618 271.280845,220.284666 271.452683,220.358947 C271.627764,220.433227 271.79636,220.504277 271.968196,220.581792 C272.140034,220.656073 272.31187,220.733588 272.483708,220.807869 C272.655544,220.885384 272.824135,220.966134 272.995972,221.043649 C273.164563,221.124399 273.336399,221.201914 273.504991,221.282664 C273.673582,221.363414 273.842172,221.447397 274.010762,221.531381 C274.179354,221.612131 274.347943,221.696114 274.516532,221.783331 C274.685121,221.867314 274.850468,221.951299 275.019057,222.038516 C275.187645,222.125733 275.35299,222.212952 275.518334,222.303403 C275.686922,222.39062 275.852266,222.481072 276.017609,222.571524 C276.182953,222.661976 276.348295,222.755662 276.513637,222.849347 C276.67898,222.939799 276.844322,223.033484 277.00642,223.130405 C277.171762,223.22409 277.333859,223.321011 277.4992,223.41793 C277.661299,223.511617 277.823394,223.611771 277.988735,223.70869 C278.15083,223.808844 278.312928,223.905764 278.471779,224.009153 C278.633875,224.109307 278.79597,224.209461 278.954822,224.31285 C279.116916,224.416238 279.27901,224.519625 279.437861,224.623014 C279.596711,224.729637 279.755562,224.833026 279.914411,224.939648 C280.076504,225.046269 280.23211,225.152893 280.390958,225.262749 C280.549806,225.372605 280.705412,225.479229 280.864259,225.592319 C281.019864,225.702176 281.175469,225.812034 281.331072,225.925125 C281.489918,226.038214 281.645521,226.151305 281.797882,226.264398 C281.953483,226.380723 282.109085,226.497047 282.261444,226.613373 C282.417045,226.729698 282.569404,226.846024 282.725005,226.962348 C282.877362,227.081908 283.02972,227.201468 283.182077,227.321027 C283.334434,227.440587 283.483546,227.563382 283.635901,227.686175 C283.785014,227.808969 283.937369,227.931762 284.086482,228.054557 C284.235592,228.180585 284.384705,228.30338 284.533814,228.432642 C284.682925,228.55867 284.832036,228.684698 284.977902,228.813961 C285.127013,228.939989 285.272879,229.069253 285.421988,229.198514 C285.56461,229.331013 285.713719,229.460274 285.85634,229.592773 C286.002205,229.725269 286.14807,229.857766 286.293932,229.993496 C286.436554,230.125995 286.579174,230.261726 286.721794,230.397458 C286.864414,230.53319 287.007032,230.672155 287.149652,230.807887 C287.204754,230.862828 287.259856,230.917768 287.318201,230.972707 L287.360338,231.01472 C287.373301,231.030881 287.389509,231.043806 287.402474,231.056733 C287.457576,231.111674 287.515921,231.166612 287.571023,231.221553 C287.710398,231.36052 287.849774,231.499487 287.989147,231.641687 C288.128523,231.780654 288.264654,231.922856 288.400784,232.065058 C288.536915,232.20726 288.673046,232.349462 288.805934,232.491666 C288.942065,232.633868 289.074953,232.776072 289.211082,232.921507 C289.343968,233.066944 289.473613,233.209149 289.606499,233.354587 C289.736142,233.500025 289.865786,233.645464 289.995427,233.794136 C290.121827,233.939577 290.251469,234.088249 290.377869,234.23369 C290.504268,234.382363 290.630667,234.531037 290.753823,234.679713 C290.880221,234.828387 291.003377,234.977062 291.126533,235.125738 C291.249688,235.274413 291.3696,235.426324 291.492755,235.575 C291.612666,235.72691 291.732578,235.878821 291.852489,236.030732 C291.9724,236.182642 292.089068,236.334555 292.205736,236.486467 C292.322403,236.641613 292.439071,236.793525 292.555738,236.948671 C292.669163,237.100585 292.78583,237.255731 292.89601,237.41088 C293.009434,237.566027 293.122858,237.721174 293.233038,237.876323 C293.343219,238.031473 293.456641,238.189853 293.563579,238.345004 C293.670515,238.503388 293.780695,238.658537 293.887632,238.816922 C293.994568,238.975306 294.101504,239.13369 294.205197,239.292076 C294.312133,239.45046 294.415826,239.608846 294.519518,239.770465 C294.623211,239.928851 294.726904,240.087237 294.827353,240.248858 C294.927801,240.410479 295.028251,240.568866 295.128698,240.733721 C295.225906,240.89211 295.326354,241.053731 295.423558,241.218587 C295.520764,241.380209 295.617969,241.541832 295.711931,241.70669 C295.809136,241.868312 295.903097,242.03317 295.99706,242.194794 C296.091021,242.359652 296.181739,242.524511 296.2757,242.689369 C296.366418,242.854228 296.457136,243.019088 296.547854,243.183947 C296.63533,243.348808 296.722805,243.513669 296.813521,243.681762 C296.900996,243.846623 296.985227,244.014719 297.072702,244.17958 C297.156933,244.347676 297.244406,244.515771 297.325394,244.683868 C297.409625,244.851965 297.493855,245.020061 297.574843,245.188158 C297.65583,245.356256 297.736818,245.524354 297.817806,245.692452 C297.898792,245.863783 297.976536,246.031883 298.05428,246.203215 C298.132024,246.371315 298.209767,246.542648 298.284267,246.713982 C298.362012,246.882082 298.436512,247.053416 298.511012,247.224751 C298.585513,247.396085 298.660013,247.56742 298.728027,247.738758 C299.223594,248.918712 300.189615,249.652211 300.82274,248.177436 C301.387681,246.864368 301.459774,245.39958 301.76207,244.021978 Z" id="Fill-14" fill="#FFD400" transform="translate(289.133657, 229.000000) rotate(69.000000) translate(-289.133657, -229.000000) "></path>
            <path d="M288.682786,52.7598899 C288.690102,52.7220548 288.698877,52.684219 288.707651,52.6478383 C288.716427,52.6100025 288.723743,52.5721674 288.732518,52.5343316 L288.758844,52.4193692 C288.76762,52.3800783 288.776395,52.3422425 288.783712,52.3029524 C288.792487,52.2651166 288.801263,52.2258258 288.810039,52.1865349 C288.818815,52.1472441 288.827592,52.1064982 288.837827,52.0672066 C288.845144,52.0279164 288.85392,51.9886256 288.864156,51.9478789 C288.871473,51.9085888 288.881709,51.8678422 288.890485,51.8270963 C288.899262,51.7863504 288.908039,51.7456045 288.918275,51.7048578 C288.927052,51.6641119 288.935828,51.623366 288.944605,51.5826201 L288.972395,51.4589266 C288.982632,51.4167249 288.99141,51.374524 289.000186,51.333778 L289.027978,51.2071744 C289.038215,51.1649727 289.046992,51.1227718 289.05723,51.079115 C289.066007,51.0369141 289.076244,50.9947124 289.085022,50.9510564 C289.095259,50.9088547 289.105497,50.8651979 289.114274,50.822997 C289.124512,50.7793402 289.13329,50.7356842 289.143527,50.6920275 C289.152305,50.6483714 289.162543,50.6047147 289.172781,50.5610579 C289.181559,50.5174019 289.191796,50.4737452 289.202034,50.4300884 C289.210812,50.3864324 289.22105,50.3413206 289.231288,50.2976639 C289.241526,50.2525521 289.251764,50.2088953 289.260543,50.1637843 C289.27078,50.1201275 289.281018,50.0750157 289.291257,50.0299039 L289.320512,49.8945692 C289.33075,49.8494574 289.340989,49.8043456 289.351227,49.7592338 C289.361465,49.714122 289.371703,49.6690102 289.381942,49.6238984 C289.390721,49.5773323 289.40096,49.5322205 289.412657,49.487108 C289.421437,49.4405419 289.431675,49.3954301 289.443374,49.3488625 C289.452153,49.3022963 289.462392,49.2571845 289.47409,49.2106169 C289.482869,49.1655059 289.494567,49.1189383 289.504806,49.0723714 C289.513586,49.0258053 289.525284,48.9792377 289.535523,48.9326709 C289.545762,48.886104 289.556001,48.8395372 289.56624,48.7929703 C289.576479,48.7464035 289.586718,48.6998366 289.598417,48.653269 C289.607196,48.6067029 289.618895,48.5601353 289.629134,48.5121134 C289.639373,48.4655465 289.649612,48.4189797 289.659852,48.3709578 C289.670091,48.3243909 289.68179,48.2778233 289.692029,48.2298014 C289.702268,48.1832346 289.712508,48.1352127 289.722747,48.0886458 C289.734446,48.0406232 289.744685,47.9940563 289.754925,47.9460344 C289.765164,47.8994675 289.776863,47.8514449 289.787103,47.803423 C289.797342,47.7568561 289.807582,47.7088342 289.817821,47.6608123 C289.82952,47.6127897 289.839759,47.5662228 289.849999,47.5182009 C289.861698,47.4701783 289.871938,47.4221564 289.882177,47.3755895 C289.892417,47.3275676 289.904116,47.279545 289.914356,47.231523 C289.924595,47.1835011 289.936294,47.1354785 289.946534,47.0874566 C289.956774,47.0394347 289.967013,46.9928678 289.978712,46.9448452 C289.988952,46.8968233 289.999191,46.8488014 290.009431,46.8007795 C290.02113,46.7527568 290.03137,46.7047349 290.04161,46.656713 L290.073788,46.5126465 C290.085488,46.4646239 290.095727,46.416602 290.105967,46.3685801 C290.117666,46.3205574 290.127906,46.2725355 290.138146,46.2245136 C290.149845,46.176491 290.160084,46.1284691 290.170324,46.0804472 C290.180564,46.0324253 290.192263,45.9844026 290.202503,45.9363807 C290.212742,45.8898138 290.224441,45.8417912 290.234681,45.7937693 C290.24492,45.7457474 290.25516,45.6977255 290.266859,45.6497028 C290.277099,45.6016809 290.287339,45.553659 290.299038,45.5056364 C290.309277,45.4590695 290.319517,45.4110476 290.331216,45.363025 C290.341455,45.3150031 290.351695,45.2669812 290.361934,45.2204143 C290.372174,45.1723924 290.383873,45.1243697 290.394113,45.0763478 C290.404352,45.029781 290.416051,44.9817583 290.426291,44.9337364 C290.43653,44.8871696 290.446769,44.8391477 290.457008,44.7925808 C290.468707,44.7445582 290.478946,44.6979913 290.489186,44.6499694 C290.499425,44.6034026 290.511124,44.5553799 290.519904,44.5088138 C290.531603,44.4607911 290.541842,44.4142243 290.552081,44.3676574 C290.56232,44.3210906 290.574019,44.2730679 290.582799,44.2265018 C290.594497,44.1799342 290.604736,44.1333674 290.614975,44.0868005 C290.625215,44.0387786 290.635454,43.9922118 290.645693,43.9456449 C290.655932,43.899078 290.66763,43.8525104 290.676409,43.8073994 C290.688108,43.7608318 290.698347,43.7142649 290.707126,43.6676988 C290.718825,43.6211312 290.727604,43.5760202 290.739302,43.5294526 C290.749541,43.4828857 290.75832,43.4377747 290.770018,43.3912071 C290.780257,43.3460953 290.789036,43.2995292 290.799275,43.2544174 C290.809513,43.2093055 290.819752,43.1627387 290.82999,43.1176269 C290.840228,43.0725151 290.850467,43.0274033 290.860705,42.9822915 C290.870943,42.9371797 290.881181,42.8920679 290.89142,42.8469561 C290.901658,42.8018443 290.910437,42.7567332 290.920674,42.7130765 C290.930913,42.6679647 290.941151,42.6228529 290.949929,42.5791969 C290.960168,42.534085 290.970405,42.4904283 290.979184,42.4453172 C290.989422,42.4016605 290.999659,42.3580037 291.009897,42.314347 C291.018675,42.270691 291.028912,42.2270342 291.039151,42.1819224 C291.047928,42.1397215 291.058166,42.0960647 291.066944,42.0524087 C291.077181,42.008752 291.087419,41.9650952 291.096196,41.9228943 C291.106434,41.8792375 291.116671,41.8370358 291.125448,41.7948348 C291.134226,41.7511788 291.144463,41.7089771 291.1547,41.6667754 L291.182492,41.5401718 C291.191269,41.4979709 291.200046,41.4557699 291.210283,41.4150233 L291.238074,41.2898747 C291.24685,41.2491288 291.255628,41.2069279 291.265864,41.1661812 C291.27464,41.1254353 291.283417,41.0846894 291.292194,41.0439435 C291.30243,41.0031968 291.309747,40.9624517 291.319983,40.9231601 C291.328759,40.8824142 291.337535,40.8431233 291.346312,40.8023774 C291.355088,40.7630866 291.363865,40.7223407 291.372641,40.6830498 C291.381417,40.643759 291.390193,40.6044681 291.398969,40.5651773 C291.407744,40.5273415 291.41652,40.4880506 291.425296,40.4487597 C291.432612,40.4109247 291.441388,40.3716338 291.450163,40.333798 L291.476489,40.2202906 C291.483805,40.1824556 291.49258,40.1446198 291.501355,40.106784 C291.50867,40.070404 291.517446,40.0325682 291.52622,39.9961874 C291.533535,39.9598074 291.54231,39.9234267 291.551085,39.8855909 C291.558399,39.8506659 291.567174,39.8142852 291.574489,39.7779051 L291.597893,39.6702194 C291.606667,39.6352937 291.613981,39.6003688 291.621296,39.5654438 C291.630069,39.5305181 291.637384,39.4955932 291.644698,39.4606682 C291.652012,39.4271983 291.660786,39.3922726 291.668099,39.3588027 C291.675413,39.3253328 291.682728,39.2904079 291.690041,39.256938 C291.697354,39.2249231 291.704668,39.1914532 291.711982,39.1579833 C291.719295,39.1259684 291.726608,39.0924985 291.733921,39.0604837 C291.741234,39.0284688 291.748547,38.996454 291.75586,38.9644391 C291.763173,38.9324243 291.769027,38.9004102 291.776339,38.8698504 C291.783651,38.8392906 291.790964,38.8072757 291.796817,38.7767167 C291.804129,38.7461569 291.811441,38.7155971 291.817294,38.685038 C291.824606,38.6559333 291.830458,38.6253742 291.83777,38.5962695 C291.843622,38.5671655 291.850933,38.5380607 291.856786,38.5089567 C291.862638,38.4798527 291.869948,38.452203 291.875801,38.423099 C291.883111,38.3954493 291.888963,38.3678003 291.894815,38.3386963 C291.900666,38.3110474 291.906517,38.2848535 291.913828,38.2572038 C291.918219,38.2310106 291.92553,38.2033609 291.93138,38.177167 C291.937231,38.1509731 291.943082,38.1247792 291.947473,38.0985861 C291.953323,38.0738472 291.959173,38.0476533 291.965023,38.0229145 C292.029381,37.7347815 292.01789,37.3739349 291.819526,37.1717842 C291.613861,36.9769126 291.251952,36.9712774 290.96443,37.0398117 C290.939619,37.0456446 290.913348,37.0514782 290.888537,37.0573111 C290.862265,37.0645998 290.835994,37.0704334 290.811183,37.0762663 C290.783453,37.0821007 290.757181,37.0893894 290.730911,37.095223 C290.70318,37.1025125 290.67545,37.1083468 290.64772,37.1141812 C290.619989,37.1214706 290.592259,37.127305 290.564528,37.1345944 C290.535338,37.1418846 290.507608,37.147719 290.478417,37.1550092 C290.449227,37.1622993 290.420038,37.1681345 290.390848,37.1754246 C290.361658,37.1827148 290.332467,37.190005 290.301818,37.1972959 C290.272628,37.2045861 290.241978,37.211877 290.211329,37.2191679 C290.180679,37.2264588 290.15003,37.2337498 290.117921,37.2410414 C290.087272,37.2483324 290.055163,37.255624 290.024513,37.2629149 L289.928186,37.286245 C289.894618,37.2935374 289.862509,37.3008291 289.830401,37.3081207 C289.796832,37.3168682 289.763264,37.3241606 289.729695,37.3329081 C289.697586,37.3401997 289.664017,37.3489472 289.630449,37.3562396 C289.595421,37.3649878 289.561853,37.3722802 289.526824,37.3810285 C289.491797,37.3883216 289.458228,37.3970691 289.4232,37.4058173 C289.388173,37.4131104 289.353144,37.4218587 289.318116,37.4306069 C289.281629,37.4393558 289.246601,37.446649 289.211573,37.4553972 C289.175086,37.4641461 289.138598,37.4728951 289.10211,37.4816441 C289.065623,37.490393 289.029135,37.499142 288.992648,37.5078909 C288.954701,37.5166406 288.918214,37.5253896 288.880267,37.5341393 C288.843779,37.5428882 288.805832,37.5516379 288.767886,37.5603876 C288.729939,37.5691373 288.693451,37.5778863 288.655504,37.588091 L288.540204,37.6143409 C288.500797,37.6245464 288.461391,37.6332968 288.423444,37.6420465 C288.384037,37.652252 288.344631,37.6610025 288.305225,37.6697529 C288.265818,37.6799584 288.226412,37.6887089 288.187005,37.6989144 C288.146139,37.7076656 288.106733,37.7178711 288.065867,37.7266223 C288.025001,37.7368285 287.985595,37.745579 287.944729,37.7557852 C287.903862,37.7659914 287.862997,37.7747426 287.822131,37.7849489 C287.781264,37.7951551 287.740399,37.8039063 287.699533,37.8141126 C287.658667,37.8243188 287.616341,37.8345258 287.574016,37.8432777 C287.53315,37.853484 287.490824,37.863691 287.448499,37.873898 C287.407633,37.8841042 287.365307,37.8943112 287.322982,37.9030631 C287.280657,37.9132701 287.236872,37.9234779 287.194546,37.9336849 C287.152221,37.9438918 287.109895,37.9540988 287.06611,37.9643066 C287.023785,37.9745136 286.98,37.9847213 286.937675,37.9949283 C286.89389,38.005136 286.850105,38.0153438 286.807779,38.0255508 C286.762535,38.0357592 286.71875,38.045967 286.674965,38.0576298 C286.63118,38.0678375 286.587395,38.0780452 286.54361,38.088253 C286.499825,38.0984607 286.454581,38.1086692 286.410795,38.120332 C286.365551,38.1305405 286.321766,38.1407482 286.276522,38.1509567 C286.231277,38.1626202 286.187492,38.1728279 286.142248,38.1830364 C286.098463,38.1946992 286.051759,38.2049084 286.007974,38.2151162 C285.962729,38.2267797 285.917485,38.2369882 285.872241,38.2471967 C285.826996,38.2588602 285.780293,38.2690694 285.735048,38.280733 C285.689803,38.2909415 285.644559,38.3011499 285.597855,38.3128142 C285.552611,38.3230227 285.505907,38.334687 285.460662,38.3448955 C285.413958,38.3565597 285.368714,38.3667682 285.32201,38.3784325 C285.276766,38.388641 285.230061,38.4003053 285.183358,38.4105145 C285.136654,38.4221788 285.08995,38.432388 285.044705,38.4440515 C284.998001,38.4557158 284.951297,38.465925 284.904593,38.4775893 C284.85789,38.4877985 284.811185,38.4994628 284.764481,38.5111271 C284.716318,38.5213371 284.669614,38.5330014 284.622911,38.5432106 C284.576206,38.5548749 284.528043,38.5665399 284.481339,38.5767491 C284.434635,38.5884134 284.387931,38.6000777 284.341227,38.6102869 C284.293064,38.6219519 284.24636,38.6336162 284.198196,38.6452812 C284.151492,38.6554905 284.103329,38.6671555 284.056625,38.6788198 C284.008462,38.6890297 283.961758,38.700694 283.913594,38.712359 C283.86543,38.7240241 283.818727,38.7342333 283.770563,38.7458983 C283.723859,38.7575626 283.675696,38.7692276 283.627533,38.7794376 L283.484501,38.8144319 C283.436339,38.8246419 283.389634,38.8363062 283.341471,38.8479712 L283.19844,38.8815105 C283.150276,38.8931755 283.102113,38.9048405 283.053949,38.9165056 C283.007246,38.9267148 282.959082,38.9383798 282.910919,38.9500448 C282.862755,38.9617099 282.814592,38.9733749 282.766429,38.9835849 C282.718265,38.9952499 282.671561,39.0069142 282.623397,39.0185792 C282.575234,39.0302442 282.527071,39.0404542 282.478907,39.0521192 C282.430744,39.0637842 282.38258,39.0754493 282.335876,39.0871136 C282.287713,39.0973235 282.23955,39.1089886 282.191386,39.1206536 C282.143223,39.1323186 282.096518,39.1439829 282.046896,39.1541936 C282.000192,39.1658579 281.952028,39.1775229 281.903865,39.1891879 C281.855702,39.1993979 281.808998,39.2110622 281.760834,39.2227272 C281.712671,39.2343922 281.664507,39.2460573 281.616344,39.2562672 C281.56964,39.2679315 281.521476,39.2795965 281.474772,39.2912608 C281.426609,39.3029258 281.378446,39.3131358 281.331741,39.3248001 C281.283578,39.3364651 281.236874,39.3466744 281.188711,39.3583394 C281.140547,39.3700044 281.093843,39.3816687 281.04568,39.3918787 C280.998976,39.4035429 280.950812,39.415208 280.904109,39.4254172 C280.855945,39.4370822 280.809241,39.4487465 280.762538,39.4589557 C280.715833,39.47062 280.66767,39.482285 280.620966,39.4924943 C280.574262,39.5041585 280.527558,39.5158228 280.480854,39.526032 C280.432691,39.5376971 280.385986,39.5493613 280.339283,39.5595706 C280.292579,39.5712349 280.245875,39.5814441 280.199171,39.5931084 C280.152467,39.6047726 280.105763,39.6149819 280.059059,39.6266461 C280.013815,39.6368546 279.967111,39.6485189 279.920407,39.6587281 C279.875162,39.6703917 279.828459,39.6806009 279.781754,39.6922652 C279.73651,39.7024737 279.689806,39.7141379 279.644562,39.7243464 C279.597857,39.7360107 279.552613,39.7462192 279.507368,39.7578827 L279.370176,39.789964 C279.324932,39.8001724 279.278227,39.8118367 279.234442,39.8220445 C279.187738,39.8337087 279.143953,39.8439165 279.098709,39.854125 C279.053465,39.8643334 279.00822,39.875997 278.962976,39.8862055 C278.919191,39.8964132 278.873946,39.9080767 278.828702,39.9182852 C278.784917,39.9284929 278.741132,39.9387007 278.695887,39.9503642 C278.652102,39.9605719 278.606858,39.9707804 278.564533,39.9809874 C278.519289,39.9911959 278.475504,40.0014036 278.431719,40.0116114 C278.387933,40.0232742 278.345608,40.0334812 278.300364,40.0436896 C278.258038,40.0538966 278.214253,40.0641044 278.171928,40.0743114 C278.128143,40.0845191 278.084358,40.0947268 278.042032,40.1049338 C277.999707,40.1151408 277.957381,40.1253478 277.913596,40.1355555 C277.871271,40.1457625 277.828945,40.1559695 277.786621,40.1647215 L277.661103,40.1953417 C277.618778,40.2055487 277.577912,40.2142999 277.535587,40.2245069 L277.411529,40.2536713 C277.370663,40.2638775 277.329797,40.2740838 277.288932,40.282835 C277.248065,40.2930412 277.207199,40.3032474 277.167793,40.3119979 C277.126927,40.3222041 277.086061,40.3309553 277.046654,40.3411608 C277.005789,40.349912 276.966382,40.3601175 276.926976,40.368868 C276.887569,40.3790735 276.848163,40.3878239 276.808757,40.3965744 C276.76935,40.4067799 276.729944,40.4155303 276.690537,40.4257358 C276.65259,40.4344855 276.614643,40.4432352 276.575237,40.4519857 C276.537289,40.4621904 276.499343,40.4709401 276.461396,40.4796898 C276.423449,40.4884395 276.385502,40.4971892 276.347555,40.507394 C276.309608,40.5161437 276.27312,40.5248926 276.235173,40.5336423 C275.614888,40.6780094 274.953794,40.7205438 274.365553,40.9827536 C273.70433,41.2770119 274.041215,41.7046245 274.578137,41.9182425 C274.655464,41.9502141 274.734252,41.9821849 274.811579,42.0141565 C274.888907,42.0461281 274.966235,42.0780997 275.043562,42.1115263 C275.122348,42.1449522 275.198216,42.1769245 275.275543,42.2118062 C275.35287,42.2452329 275.430196,42.2801146 275.507523,42.3135412 C275.584849,42.3484229 275.660715,42.3847604 275.738042,42.4196421 C275.813908,42.4559795 275.891234,42.4908612 275.9671,42.5271987 C276.042966,42.5635362 276.118832,42.6013287 276.194697,42.6391213 C276.270564,42.6754587 276.346429,42.7132513 276.422294,42.7524989 C276.498159,42.7902914 276.572565,42.8280847 276.64843,42.8673323 C276.724295,42.9065799 276.7987,42.9458282 276.873105,42.9865316 C276.948969,43.0257792 277.023374,43.0664825 277.097779,43.1071859 C277.172183,43.1478893 277.246587,43.1900477 277.320991,43.2322062 C277.395396,43.2729096 277.4698,43.315068 277.542743,43.3586822 C277.617147,43.4008407 277.690091,43.4444549 277.764494,43.4880684 C277.837439,43.5302276 277.910382,43.5752968 277.984785,43.6189103 C278.057728,43.6639796 278.130672,43.7075938 278.202155,43.7541189 C278.275098,43.7991882 278.348041,43.8442575 278.419524,43.8907826 C278.492467,43.9373069 278.565409,43.9838312 278.636892,44.0303563 C278.708374,44.0783364 278.779857,44.1248615 278.851339,44.1728416 C278.924281,44.220821 278.994304,44.2688019 279.065786,44.3182371 C279.137267,44.3676723 279.20729,44.4156531 279.278771,44.4665434 C279.348793,44.5159793 279.418815,44.5654152 279.488837,44.6163062 C279.560318,44.6671964 279.630339,44.7180874 279.698901,44.7689791 C279.768922,44.8213252 279.838943,44.8736712 279.907504,44.926018 C279.977525,44.978364 280.046086,45.0307108 280.116107,45.0830568 C280.184668,45.1368586 280.253228,45.1906605 280.321789,45.2444623 C280.39035,45.2982641 280.45745,45.3535217 280.52601,45.4087786 C280.593111,45.4640362 280.661671,45.5192931 280.728771,45.5745507 C280.795871,45.6312634 280.862972,45.686521 280.930071,45.7446888 C280.997171,45.8014014 281.06427,45.8581141 281.12991,45.9162826 C281.19701,45.9729952 281.26265,46.0311637 281.329749,46.0893314 C281.393929,46.1489557 281.461028,46.2071234 281.525208,46.2667477 C281.590847,46.3263712 281.656486,46.3859948 281.722124,46.4470733 C281.786304,46.5066976 281.850483,46.5677769 281.914662,46.6288562 C281.978841,46.6899355 282.043019,46.7524699 282.107198,46.8135492 C282.131994,46.8382724 282.15679,46.8629956 282.183045,46.887718 L282.202006,46.906624 C282.20784,46.9138963 282.215134,46.9197128 282.220968,46.92553 C282.245764,46.9502532 282.272019,46.9749756 282.296815,46.9996988 C282.359534,47.0622339 282.422253,47.124769 282.484971,47.1887592 C282.54769,47.2512943 282.608949,47.3152852 282.670207,47.3792761 C282.731466,47.443267 282.792725,47.507258 282.852525,47.5712496 C282.913784,47.6352405 282.973583,47.6992322 283.034841,47.7646781 C283.09464,47.8301249 283.15298,47.8941173 283.212779,47.959564 C283.271118,48.0250114 283.329458,48.0904589 283.387797,48.1573614 C283.444677,48.2228096 283.503016,48.2897121 283.559896,48.3551603 C283.616775,48.4220636 283.673654,48.4889668 283.729075,48.5558708 C283.785954,48.6227741 283.841374,48.6896781 283.896794,48.7565821 C283.952214,48.8234861 284.006174,48.8918459 284.061594,48.9587499 C284.115554,49.0271096 284.169514,49.0954694 284.223474,49.1638292 C284.277434,49.232189 284.329935,49.3005496 284.382436,49.3689101 C284.434936,49.4387257 284.487436,49.5070863 284.539936,49.5769018 C284.590978,49.6452631 284.643478,49.7150787 284.693059,49.7848958 C284.7441,49.8547121 284.79514,49.9245285 284.844722,49.9943456 C284.894303,50.0641627 284.945343,50.135434 284.993465,50.2052519 C285.041586,50.2765248 285.091167,50.3463418 285.139289,50.4176147 C285.18741,50.4888876 285.235531,50.5601605 285.282193,50.6314341 C285.330314,50.702707 285.376976,50.7739806 285.423637,50.8467093 C285.470299,50.9179829 285.516961,50.9892566 285.562163,51.061986 C285.607365,51.1347154 285.652568,51.2059898 285.697769,51.2801743 C285.741512,51.3514494 285.786714,51.4241788 285.830456,51.498364 C285.874198,51.5710942 285.917941,51.6438244 285.960223,51.7180103 C286.003966,51.7907405 286.046248,51.8649265 286.088531,51.9376574 C286.130814,52.0118434 286.171637,52.0860301 286.213919,52.160216 C286.254743,52.2344028 286.295566,52.3085895 286.336389,52.3827762 C286.375753,52.4569636 286.415117,52.5311511 286.455939,52.6067929 C286.495303,52.6809803 286.533207,52.7566236 286.57257,52.830811 C286.610474,52.9064543 286.649837,52.9820968 286.686282,53.0577408 C286.724185,53.1333841 286.762089,53.2090273 286.798534,53.2846713 C286.834978,53.3603153 286.871423,53.4359593 286.907867,53.5116033 C286.944311,53.5887024 286.979296,53.6643471 287.01428,53.7414469 C287.049265,53.8170917 287.08425,53.8941915 287.117775,53.971292 C287.15276,54.0469368 287.186285,54.1240373 287.21981,54.2011379 C287.253335,54.2782384 287.28686,54.355339 287.317467,54.432441 C287.540472,54.9634205 287.975181,55.2934947 288.260088,54.629846 C288.514311,54.0389655 288.546753,53.379811 288.682786,52.7598899 Z" id="Fill-14" fill="#17BC7E" transform="translate(283.000000, 46.000000) rotate(92.000000) translate(-283.000000, -46.000000) "></path>
            <path d="M117.682786,344.75989 C117.690102,344.722055 117.698877,344.684219 117.707651,344.647838 C117.716427,344.610002 117.723743,344.572167 117.732518,344.534332 L117.758844,344.419369 C117.76762,344.380078 117.776395,344.342243 117.783712,344.302952 C117.792487,344.265117 117.801263,344.225826 117.810039,344.186535 C117.818815,344.147244 117.827592,344.106498 117.837827,344.067207 C117.845144,344.027916 117.85392,343.988626 117.864156,343.947879 C117.871473,343.908589 117.881709,343.867842 117.890485,343.827096 C117.899262,343.78635 117.908039,343.745604 117.918275,343.704858 C117.927052,343.664112 117.935828,343.623366 117.944605,343.58262 L117.972395,343.458927 C117.982632,343.416725 117.99141,343.374524 118.000186,343.333778 L118.027978,343.207174 C118.038215,343.164973 118.046992,343.122772 118.05723,343.079115 C118.066007,343.036914 118.076244,342.994712 118.085022,342.951056 C118.095259,342.908855 118.105497,342.865198 118.114274,342.822997 C118.124512,342.77934 118.13329,342.735684 118.143527,342.692027 C118.152305,342.648371 118.162543,342.604715 118.172781,342.561058 C118.181559,342.517402 118.191796,342.473745 118.202034,342.430088 C118.210812,342.386432 118.22105,342.341321 118.231288,342.297664 C118.241526,342.252552 118.251764,342.208895 118.260543,342.163784 C118.27078,342.120128 118.281018,342.075016 118.291257,342.029904 L118.320512,341.894569 C118.33075,341.849457 118.340989,341.804346 118.351227,341.759234 C118.361465,341.714122 118.371703,341.66901 118.381942,341.623898 C118.390721,341.577332 118.40096,341.532221 118.412657,341.487108 C118.421437,341.440542 118.431675,341.39543 118.443374,341.348862 C118.452153,341.302296 118.462392,341.257185 118.47409,341.210617 C118.482869,341.165506 118.494567,341.118938 118.504806,341.072371 C118.513586,341.025805 118.525284,340.979238 118.535523,340.932671 C118.545762,340.886104 118.556001,340.839537 118.56624,340.79297 C118.576479,340.746403 118.586718,340.699837 118.598417,340.653269 C118.607196,340.606703 118.618895,340.560135 118.629134,340.512113 C118.639373,340.465547 118.649612,340.41898 118.659852,340.370958 C118.670091,340.324391 118.68179,340.277823 118.692029,340.229801 C118.702268,340.183235 118.712508,340.135213 118.722747,340.088646 C118.734446,340.040623 118.744685,339.994056 118.754925,339.946034 C118.765164,339.899468 118.776863,339.851445 118.787103,339.803423 C118.797342,339.756856 118.807582,339.708834 118.817821,339.660812 C118.82952,339.61279 118.839759,339.566223 118.849999,339.518201 C118.861698,339.470178 118.871938,339.422156 118.882177,339.37559 C118.892417,339.327568 118.904116,339.279545 118.914356,339.231523 C118.924595,339.183501 118.936294,339.135478 118.946534,339.087457 C118.956774,339.039435 118.967013,338.992868 118.978712,338.944845 C118.988952,338.896823 118.999191,338.848801 119.009431,338.800779 C119.02113,338.752757 119.03137,338.704735 119.04161,338.656713 L119.073788,338.512647 C119.085488,338.464624 119.095727,338.416602 119.105967,338.36858 C119.117666,338.320557 119.127906,338.272536 119.138146,338.224514 C119.149845,338.176491 119.160084,338.128469 119.170324,338.080447 C119.180564,338.032425 119.192263,337.984403 119.202503,337.936381 C119.212742,337.889814 119.224441,337.841791 119.234681,337.793769 C119.24492,337.745747 119.25516,337.697725 119.266859,337.649703 C119.277099,337.601681 119.287339,337.553659 119.299038,337.505636 C119.309277,337.45907 119.319517,337.411048 119.331216,337.363025 C119.341455,337.315003 119.351695,337.266981 119.361934,337.220414 C119.372174,337.172392 119.383873,337.12437 119.394113,337.076348 C119.404352,337.029781 119.416051,336.981758 119.426291,336.933736 C119.43653,336.88717 119.446769,336.839148 119.457008,336.792581 C119.468707,336.744558 119.478946,336.697991 119.489186,336.649969 C119.499425,336.603403 119.511124,336.55538 119.519904,336.508814 C119.531603,336.460791 119.541842,336.414224 119.552081,336.367657 C119.56232,336.321091 119.574019,336.273068 119.582799,336.226502 C119.594497,336.179934 119.604736,336.133367 119.614975,336.086801 C119.625215,336.038779 119.635454,335.992212 119.645693,335.945645 C119.655932,335.899078 119.66763,335.85251 119.676409,335.807399 C119.688108,335.760832 119.698347,335.714265 119.707126,335.667699 C119.718825,335.621131 119.727604,335.57602 119.739302,335.529453 C119.749541,335.482886 119.75832,335.437775 119.770018,335.391207 C119.780257,335.346095 119.789036,335.299529 119.799275,335.254417 C119.809513,335.209306 119.819752,335.162739 119.82999,335.117627 C119.840228,335.072515 119.850467,335.027403 119.860705,334.982291 C119.870943,334.93718 119.881181,334.892068 119.89142,334.846956 C119.901658,334.801844 119.910437,334.756733 119.920674,334.713076 C119.930913,334.667965 119.941151,334.622853 119.949929,334.579197 C119.960168,334.534085 119.970405,334.490428 119.979184,334.445317 C119.989422,334.40166 119.999659,334.358004 120.009897,334.314347 C120.018675,334.270691 120.028912,334.227034 120.039151,334.181922 C120.047928,334.139721 120.058166,334.096065 120.066944,334.052409 C120.077181,334.008752 120.087419,333.965095 120.096196,333.922894 C120.106434,333.879238 120.116671,333.837036 120.125448,333.794835 C120.134226,333.751179 120.144463,333.708977 120.1547,333.666775 L120.182492,333.540172 C120.191269,333.497971 120.200046,333.45577 120.210283,333.415023 L120.238074,333.289875 C120.24685,333.249129 120.255628,333.206928 120.265864,333.166181 C120.27464,333.125435 120.283417,333.084689 120.292194,333.043943 C120.30243,333.003197 120.309747,332.962452 120.319983,332.92316 C120.328759,332.882414 120.337535,332.843123 120.346312,332.802377 C120.355088,332.763087 120.363865,332.722341 120.372641,332.68305 C120.381417,332.643759 120.390193,332.604468 120.398969,332.565177 C120.407744,332.527341 120.41652,332.488051 120.425296,332.44876 C120.432612,332.410925 120.441388,332.371634 120.450163,332.333798 L120.476489,332.220291 C120.483805,332.182456 120.49258,332.14462 120.501355,332.106784 C120.50867,332.070404 120.517446,332.032568 120.52622,331.996187 C120.533535,331.959807 120.54231,331.923427 120.551085,331.885591 C120.558399,331.850666 120.567174,331.814285 120.574489,331.777905 L120.597893,331.670219 C120.606667,331.635294 120.613981,331.600369 120.621296,331.565444 C120.630069,331.530518 120.637384,331.495593 120.644698,331.460668 C120.652012,331.427198 120.660786,331.392273 120.668099,331.358803 C120.675413,331.325333 120.682728,331.290408 120.690041,331.256938 C120.697354,331.224923 120.704668,331.191453 120.711982,331.157983 C120.719295,331.125968 120.726608,331.092499 120.733921,331.060484 C120.741234,331.028469 120.748547,330.996454 120.75586,330.964439 C120.763173,330.932424 120.769027,330.90041 120.776339,330.86985 C120.783651,330.839291 120.790964,330.807276 120.796817,330.776717 C120.804129,330.746157 120.811441,330.715597 120.817294,330.685038 C120.824606,330.655933 120.830458,330.625374 120.83777,330.596269 C120.843622,330.567165 120.850933,330.538061 120.856786,330.508957 C120.862638,330.479853 120.869948,330.452203 120.875801,330.423099 C120.883111,330.395449 120.888963,330.3678 120.894815,330.338696 C120.900666,330.311047 120.906517,330.284853 120.913828,330.257204 C120.918219,330.231011 120.92553,330.203361 120.93138,330.177167 C120.937231,330.150973 120.943082,330.124779 120.947473,330.098586 C120.953323,330.073847 120.959173,330.047653 120.965023,330.022914 C121.029381,329.734782 121.01789,329.373935 120.819526,329.171784 C120.613861,328.976913 120.251952,328.971277 119.96443,329.039812 C119.939619,329.045645 119.913348,329.051478 119.888537,329.057311 C119.862265,329.0646 119.835994,329.070433 119.811183,329.076266 C119.783453,329.082101 119.757181,329.089389 119.730911,329.095223 C119.70318,329.102512 119.67545,329.108347 119.64772,329.114181 C119.619989,329.121471 119.592259,329.127305 119.564528,329.134594 C119.535338,329.141885 119.507608,329.147719 119.478417,329.155009 C119.449227,329.162299 119.420038,329.168134 119.390848,329.175425 C119.361658,329.182715 119.332467,329.190005 119.301818,329.197296 C119.272628,329.204586 119.241978,329.211877 119.211329,329.219168 C119.180679,329.226459 119.15003,329.23375 119.117921,329.241041 C119.087272,329.248332 119.055163,329.255624 119.024513,329.262915 L118.928186,329.286245 C118.894618,329.293537 118.862509,329.300829 118.830401,329.308121 C118.796832,329.316868 118.763264,329.324161 118.729695,329.332908 C118.697586,329.3402 118.664017,329.348947 118.630449,329.35624 C118.595421,329.364988 118.561853,329.37228 118.526824,329.381028 C118.491797,329.388322 118.458228,329.397069 118.4232,329.405817 C118.388173,329.41311 118.353144,329.421859 118.318116,329.430607 C118.281629,329.439356 118.246601,329.446649 118.211573,329.455397 C118.175086,329.464146 118.138598,329.472895 118.10211,329.481644 C118.065623,329.490393 118.029135,329.499142 117.992648,329.507891 C117.954701,329.516641 117.918214,329.52539 117.880267,329.534139 C117.843779,329.542888 117.805832,329.551638 117.767886,329.560388 C117.729939,329.569137 117.693451,329.577886 117.655504,329.588091 L117.540204,329.614341 C117.500797,329.624546 117.461391,329.633297 117.423444,329.642047 C117.384037,329.652252 117.344631,329.661002 117.305225,329.669753 C117.265818,329.679958 117.226412,329.688709 117.187005,329.698914 C117.146139,329.707666 117.106733,329.717871 117.065867,329.726622 C117.025001,329.736829 116.985595,329.745579 116.944729,329.755785 C116.903862,329.765991 116.862997,329.774743 116.822131,329.784949 C116.781264,329.795155 116.740399,329.803906 116.699533,329.814113 C116.658667,329.824319 116.616341,329.834526 116.574016,329.843278 C116.53315,329.853484 116.490824,329.863691 116.448499,329.873898 C116.407633,329.884104 116.365307,329.894311 116.322982,329.903063 C116.280657,329.91327 116.236872,329.923478 116.194546,329.933685 C116.152221,329.943892 116.109895,329.954099 116.06611,329.964307 C116.023785,329.974514 115.98,329.984721 115.937675,329.994928 C115.89389,330.005136 115.850105,330.015344 115.807779,330.025551 C115.762535,330.035759 115.71875,330.045967 115.674965,330.05763 C115.63118,330.067837 115.587395,330.078045 115.54361,330.088253 C115.499825,330.098461 115.454581,330.108669 115.410795,330.120332 C115.365551,330.13054 115.321766,330.140748 115.276522,330.150957 C115.231277,330.16262 115.187492,330.172828 115.142248,330.183036 C115.098463,330.194699 115.051759,330.204908 115.007974,330.215116 C114.962729,330.22678 114.917485,330.236988 114.872241,330.247197 C114.826996,330.25886 114.780293,330.269069 114.735048,330.280733 C114.689803,330.290941 114.644559,330.30115 114.597855,330.312814 C114.552611,330.323023 114.505907,330.334687 114.460662,330.344895 C114.413958,330.35656 114.368714,330.366768 114.32201,330.378432 C114.276766,330.388641 114.230061,330.400305 114.183358,330.410514 C114.136654,330.422179 114.08995,330.432388 114.044705,330.444052 C113.998001,330.455716 113.951297,330.465925 113.904593,330.477589 C113.85789,330.487799 113.811185,330.499463 113.764481,330.511127 C113.716318,330.521337 113.669614,330.533001 113.622911,330.543211 C113.576206,330.554875 113.528043,330.56654 113.481339,330.576749 C113.434635,330.588413 113.387931,330.600078 113.341227,330.610287 C113.293064,330.621952 113.24636,330.633616 113.198196,330.645281 C113.151492,330.65549 113.103329,330.667155 113.056625,330.67882 C113.008462,330.68903 112.961758,330.700694 112.913594,330.712359 C112.86543,330.724024 112.818727,330.734233 112.770563,330.745898 C112.723859,330.757563 112.675696,330.769228 112.627533,330.779438 L112.484501,330.814432 C112.436339,330.824642 112.389634,330.836306 112.341471,330.847971 L112.19844,330.88151 C112.150276,330.893176 112.102113,330.904841 112.053949,330.916506 C112.007246,330.926715 111.959082,330.93838 111.910919,330.950045 C111.862755,330.96171 111.814592,330.973375 111.766429,330.983585 C111.718265,330.99525 111.671561,331.006914 111.623397,331.018579 C111.575234,331.030244 111.527071,331.040454 111.478907,331.052119 C111.430744,331.063784 111.38258,331.075449 111.335876,331.087114 C111.287713,331.097324 111.23955,331.108989 111.191386,331.120654 C111.143223,331.132319 111.096518,331.143983 111.046896,331.154194 C111.000192,331.165858 110.952028,331.177523 110.903865,331.189188 C110.855702,331.199398 110.808998,331.211062 110.760834,331.222727 C110.712671,331.234392 110.664507,331.246057 110.616344,331.256267 C110.56964,331.267932 110.521476,331.279597 110.474772,331.291261 C110.426609,331.302926 110.378446,331.313136 110.331741,331.3248 C110.283578,331.336465 110.236874,331.346674 110.188711,331.358339 C110.140547,331.370004 110.093843,331.381669 110.04568,331.391879 C109.998976,331.403543 109.950812,331.415208 109.904109,331.425417 C109.855945,331.437082 109.809241,331.448746 109.762538,331.458956 C109.715833,331.47062 109.66767,331.482285 109.620966,331.492494 C109.574262,331.504159 109.527558,331.515823 109.480854,331.526032 C109.432691,331.537697 109.385986,331.549361 109.339283,331.559571 C109.292579,331.571235 109.245875,331.581444 109.199171,331.593108 C109.152467,331.604773 109.105763,331.614982 109.059059,331.626646 C109.013815,331.636855 108.967111,331.648519 108.920407,331.658728 C108.875162,331.670392 108.828459,331.680601 108.781754,331.692265 C108.73651,331.702474 108.689806,331.714138 108.644562,331.724346 C108.597857,331.736011 108.552613,331.746219 108.507368,331.757883 L108.370176,331.789964 C108.324932,331.800172 108.278227,331.811837 108.234442,331.822044 C108.187738,331.833709 108.143953,331.843916 108.098709,331.854125 C108.053465,331.864333 108.00822,331.875997 107.962976,331.886205 C107.919191,331.896413 107.873946,331.908077 107.828702,331.918285 C107.784917,331.928493 107.741132,331.938701 107.695887,331.950364 C107.652102,331.960572 107.606858,331.97078 107.564533,331.980987 C107.519289,331.991196 107.475504,332.001404 107.431719,332.011611 C107.387933,332.023274 107.345608,332.033481 107.300364,332.04369 C107.258038,332.053897 107.214253,332.064104 107.171928,332.074311 C107.128143,332.084519 107.084358,332.094727 107.042032,332.104934 C106.999707,332.115141 106.957381,332.125348 106.913596,332.135556 C106.871271,332.145763 106.828945,332.15597 106.786621,332.164721 L106.661103,332.195342 C106.618778,332.205549 106.577912,332.2143 106.535587,332.224507 L106.411529,332.253671 C106.370663,332.263878 106.329797,332.274084 106.288932,332.282835 C106.248065,332.293041 106.207199,332.303247 106.167793,332.311998 C106.126927,332.322204 106.086061,332.330955 106.046654,332.341161 C106.005789,332.349912 105.966382,332.360118 105.926976,332.368868 C105.887569,332.379073 105.848163,332.387824 105.808757,332.396574 C105.76935,332.40678 105.729944,332.41553 105.690537,332.425736 C105.65259,332.434486 105.614643,332.443235 105.575237,332.451986 C105.537289,332.46219 105.499343,332.47094 105.461396,332.47969 C105.423449,332.48844 105.385502,332.497189 105.347555,332.507394 C105.309608,332.516144 105.27312,332.524893 105.235173,332.533642 C104.614888,332.678009 103.953794,332.720544 103.365553,332.982754 C102.70433,333.277012 103.041215,333.704625 103.578137,333.918243 C103.655464,333.950214 103.734252,333.982185 103.811579,334.014157 C103.888907,334.046128 103.966235,334.0781 104.043562,334.111526 C104.122348,334.144952 104.198216,334.176925 104.275543,334.211806 C104.35287,334.245233 104.430196,334.280115 104.507523,334.313541 C104.584849,334.348423 104.660715,334.38476 104.738042,334.419642 C104.813908,334.45598 104.891234,334.490861 104.9671,334.527199 C105.042966,334.563536 105.118832,334.601329 105.194697,334.639121 C105.270564,334.675459 105.346429,334.713251 105.422294,334.752499 C105.498159,334.790291 105.572565,334.828085 105.64843,334.867332 C105.724295,334.90658 105.7987,334.945828 105.873105,334.986532 C105.948969,335.025779 106.023374,335.066483 106.097779,335.107186 C106.172183,335.147889 106.246587,335.190048 106.320991,335.232206 C106.395396,335.27291 106.4698,335.315068 106.542743,335.358682 C106.617147,335.400841 106.690091,335.444455 106.764494,335.488068 C106.837439,335.530228 106.910382,335.575297 106.984785,335.61891 C107.057728,335.66398 107.130672,335.707594 107.202155,335.754119 C107.275098,335.799188 107.348041,335.844257 107.419524,335.890783 C107.492467,335.937307 107.565409,335.983831 107.636892,336.030356 C107.708374,336.078336 107.779857,336.124862 107.851339,336.172842 C107.924281,336.220821 107.994304,336.268802 108.065786,336.318237 C108.137267,336.367672 108.20729,336.415653 108.278771,336.466543 C108.348793,336.515979 108.418815,336.565415 108.488837,336.616306 C108.560318,336.667196 108.630339,336.718087 108.698901,336.768979 C108.768922,336.821325 108.838943,336.873671 108.907504,336.926018 C108.977525,336.978364 109.046086,337.030711 109.116107,337.083057 C109.184668,337.136859 109.253228,337.19066 109.321789,337.244462 C109.39035,337.298264 109.45745,337.353522 109.52601,337.408779 C109.593111,337.464036 109.661671,337.519293 109.728771,337.574551 C109.795871,337.631263 109.862972,337.686521 109.930071,337.744689 C109.997171,337.801401 110.06427,337.858114 110.12991,337.916283 C110.19701,337.972995 110.26265,338.031164 110.329749,338.089331 C110.393929,338.148956 110.461028,338.207123 110.525208,338.266748 C110.590847,338.326371 110.656486,338.385995 110.722124,338.447073 C110.786304,338.506698 110.850483,338.567777 110.914662,338.628856 C110.978841,338.689936 111.043019,338.75247 111.107198,338.813549 C111.131994,338.838272 111.15679,338.862996 111.183045,338.887718 L111.202006,338.906624 C111.20784,338.913896 111.215134,338.919713 111.220968,338.92553 C111.245764,338.950253 111.272019,338.974976 111.296815,338.999699 C111.359534,339.062234 111.422253,339.124769 111.484971,339.188759 C111.54769,339.251294 111.608949,339.315285 111.670207,339.379276 C111.731466,339.443267 111.792725,339.507258 111.852525,339.57125 C111.913784,339.635241 111.973583,339.699232 112.034841,339.764678 C112.09464,339.830125 112.15298,339.894117 112.212779,339.959564 C112.271118,340.025011 112.329458,340.090459 112.387797,340.157361 C112.444677,340.22281 112.503016,340.289712 112.559896,340.35516 C112.616775,340.422064 112.673654,340.488967 112.729075,340.555871 C112.785954,340.622774 112.841374,340.689678 112.896794,340.756582 C112.952214,340.823486 113.006174,340.891846 113.061594,340.95875 C113.115554,341.02711 113.169514,341.095469 113.223474,341.163829 C113.277434,341.232189 113.329935,341.30055 113.382436,341.36891 C113.434936,341.438726 113.487436,341.507086 113.539936,341.576902 C113.590978,341.645263 113.643478,341.715079 113.693059,341.784896 C113.7441,341.854712 113.79514,341.924528 113.844722,341.994346 C113.894303,342.064163 113.945343,342.135434 113.993465,342.205252 C114.041586,342.276525 114.091167,342.346342 114.139289,342.417615 C114.18741,342.488888 114.235531,342.56016 114.282193,342.631434 C114.330314,342.702707 114.376976,342.773981 114.423637,342.846709 C114.470299,342.917983 114.516961,342.989257 114.562163,343.061986 C114.607365,343.134715 114.652568,343.20599 114.697769,343.280174 C114.741512,343.351449 114.786714,343.424179 114.830456,343.498364 C114.874198,343.571094 114.917941,343.643824 114.960223,343.71801 C115.003966,343.790741 115.046248,343.864926 115.088531,343.937657 C115.130814,344.011843 115.171637,344.08603 115.213919,344.160216 C115.254743,344.234403 115.295566,344.308589 115.336389,344.382776 C115.375753,344.456964 115.415117,344.531151 115.455939,344.606793 C115.495303,344.68098 115.533207,344.756624 115.57257,344.830811 C115.610474,344.906454 115.649837,344.982097 115.686282,345.057741 C115.724185,345.133384 115.762089,345.209027 115.798534,345.284671 C115.834978,345.360315 115.871423,345.435959 115.907867,345.511603 C115.944311,345.588702 115.979296,345.664347 116.01428,345.741447 C116.049265,345.817092 116.08425,345.894191 116.117775,345.971292 C116.15276,346.046937 116.186285,346.124037 116.21981,346.201138 C116.253335,346.278238 116.28686,346.355339 116.317467,346.432441 C116.540472,346.96342 116.975181,347.293495 117.260088,346.629846 C117.514311,346.038966 117.546753,345.379811 117.682786,344.75989 Z" id="Fill-14" fill="#17BC7E" transform="translate(112.000000, 338.000000) rotate(261.000000) translate(-112.000000, -338.000000) "></path>
        </g>
    </g>
</svg>