<svg xmlns="http://www.w3.org/2000/svg" width="126" height="26" viewBox="0 0 126 26">
    <g fill="none" fill-rule="evenodd">
        <path fill="#FFF" d="M-149-32h1440v5670H-149z"/>
        <g fill="#3A3A3A">
            <path d="M36.997 20h4V0h-4zM54.407 15.881c.773-.9 1.16-1.992 1.16-3.28 0-1.287-.387-2.372-1.16-3.254-.772-.881-1.777-1.322-3.014-1.322-1.238 0-2.255.458-3.054 1.376-.8.916-1.199 2.019-1.199 3.306 0 1.252.408 2.319 1.224 3.2.816.883 1.826 1.323 3.029 1.323 1.237 0 2.242-.45 3.014-1.349zm4.407 4.1h-3.143v-1.825c-.568.688-1.319 1.243-2.255 1.667-.938.423-1.852.635-2.745.635-2.079 0-3.76-.776-5.039-2.328-1.28-1.552-1.919-3.413-1.919-5.582 0-2.151.674-3.98 2.023-5.489 1.349-1.508 3.062-2.262 5.14-2.262 1.582 0 2.99.582 4.227 1.746.259.265.43.468.516.609h.052V5.3h3.143V19.98zM72.653 12.495c0-1.181-.412-2.222-1.237-3.121-.824-.9-1.813-1.35-2.964-1.35-1.184 0-2.177.442-2.976 1.323-.799.882-1.198 1.94-1.198 3.175 0 1.287.404 2.394 1.21 3.32.808.925 1.831 1.388 3.068 1.388 1.202 0 2.186-.471 2.95-1.415.765-.943 1.147-2.05 1.147-3.32zm3.428 4.788c0 1.852-.374 3.479-1.121 4.881-.747 1.402-1.903 2.437-3.467 3.108a7.839 7.839 0 0 1-3.22.688c-1.616 0-3.076-.433-4.382-1.297-1.306-.864-2.242-2.054-2.809-3.57H65c.91 1.093 2.087 1.64 3.53 1.64 1.254 0 2.28-.437 3.08-1.31.8-.873 1.232-1.962 1.301-3.267l-.052-.053c-1.082 1.57-2.645 2.354-4.69 2.354-.98 0-1.924-.22-2.835-.66a7.379 7.379 0 0 1-3.298-2.95c-.79-1.314-1.186-2.764-1.186-4.352 0-2.08.709-3.884 2.127-5.41 1.417-1.524 3.14-2.288 5.166-2.288 2.045 0 3.565.768 4.562 2.302h.052V5.3h3.324v11.983zM89.456 12.68c0-1.216-.4-2.296-1.198-3.24-.8-.943-1.783-1.416-2.951-1.416-1.186 0-2.183.468-2.99 1.402-.807.936-1.211 2.011-1.211 3.228 0 1.252.395 2.328 1.186 3.227.79.9 1.794 1.35 3.015 1.35 1.186 0 2.173-.45 2.963-1.35.79-.9 1.186-1.966 1.186-3.2m3.427-.08c0 2.222-.721 4.087-2.164 5.595s-3.248 2.262-5.412 2.262c-2.096 0-3.892-.768-5.387-2.302-1.494-1.534-2.24-3.368-2.24-5.502 0-2.169.741-4.02 2.228-5.555 1.485-1.535 3.285-2.301 5.399-2.301 2.113 0 3.904.758 5.373 2.274 1.469 1.517 2.203 3.36 2.203 5.53M101.697 8.21c-2.08.07-3.118 1.243-3.118 3.518v8.253h-3.428V5.3h3.144v1.296h.052c.481-.705.944-1.18 1.39-1.428.448-.247 1.1-.37 1.96-.37V8.21zM109.995 8.422h-2.061v11.56h-3.428V8.422h-1.675V5.3h1.675V.406h3.428V5.3h2.061zM121.411 15.881c.773-.9 1.16-1.992 1.16-3.28 0-1.287-.387-2.372-1.16-3.254-.773-.881-1.777-1.322-3.015-1.322-1.237 0-2.255.458-3.054 1.376-.798.916-1.198 2.019-1.198 3.306 0 1.252.407 2.319 1.224 3.2.816.883 1.825 1.323 3.028 1.323 1.238 0 2.242-.45 3.015-1.349zm4.407 4.1h-3.144v-1.825c-.567.688-1.318 1.243-2.255 1.667-.937.423-1.851.635-2.744.635-2.08 0-3.76-.776-5.039-2.328-1.28-1.552-1.92-3.413-1.92-5.582 0-2.151.674-3.98 2.023-5.489 1.349-1.508 3.063-2.262 5.142-2.262 1.58 0 2.99.582 4.226 1.746.258.265.43.468.515.609h.052V5.3h3.144V19.98z"/>
        </g>
        <path fill="#17BC7E" d="M24.93 21.042c-.287-1.92-1.928-3.37-3.822-3.378l-.067.002c-.784.01-1.537.26-2.177.72l-.102.075h-.01l-.012.008a8.243 8.243 0 0 1-4.915 1.626c-4.654 0-8.428-3.874-8.428-8.651 0-1.875.584-3.61 1.572-5.027l.022-.036v-.006l.07-.104c.449-.656.692-1.429.702-2.234v-.094C7.745 2.009 6.338.338 4.475.046a3.808 3.808 0 0 0-1.183 0C1.42.339.009 2.023 0 3.967v.07c.011.805.254 1.578.703 2.234.042.06.08.122.116.185.037.06.077.12.113.181a11.166 11.166 0 0 1 .464.846 11.966 11.966 0 0 1 1.007 2.936 12.19 12.19 0 0 1 .236 2.664 11.936 11.936 0 0 1-1.93 6.271A4.054 4.054 0 0 0 0 21.6v.05c0 .057.002.114.005.171v.032l.002.022.008.118.006.061.012.11.008.06.003.025.005.035.007.035.002.012.013.076.018.088.003.012.016.075c.006.03.014.058.021.087.01.033.016.06.023.086a4.269 4.269 0 0 0 .081.253l.03.082.027.07.006.013c.011.03.02.055.032.08l.035.079.005.01.032.07c.012.024.025.048.036.073l.043.081.04.071a2.167 2.167 0 0 0 .084.144l.007.011.045.073.042.06.007.012.01.013c.013.019.025.038.039.056l.048.066.014.018.04.053.053.066.057.068.05.058.064.07.059.061.008.008.052.053.052.05.01.01.008.007.054.05.065.056.065.056.066.053a3.905 3.905 0 0 0 .27.194l.01.008.07.044c.023.015.047.03.072.044l.074.044.066.036.02.01.064.034.073.035.014.007.069.033.067.029.012.004a2.074 2.074 0 0 0 .148.06l.012.004a1.767 1.767 0 0 0 .153.054l.01.003c.028.01.056.018.084.026l.082.023c.03.008.057.016.085.022.028.008.056.014.084.02l.011.002c.025.006.05.012.076.016l.085.016.036.006.027.005.033.005.043.006.012.001c.036.005.071.01.108.013l.06.006.114.008.02.001.032.002.147.004.072-.001a3.776 3.776 0 0 0 2.18-.722 11.21 11.21 0 0 1 6.374-1.99c.087 0 .173.002.26.003 2.144.05 4.22.711 6.01 1.916h.006l.101.071a3.79 3.79 0 0 0 2.177.722l.086.001c1.886-.019 3.518-1.464 3.802-3.377a4.114 4.114 0 0 0 0-1.215"/>
        <path fill="#FFD400" d="M23.31 8.08c.113-.27.127-.573.187-.857l.011-.05.011-.053.012-.053.011-.053.012-.053.012-.055a.921.921 0 0 1 .012-.055l.011-.055.013-.056.012-.056.012-.057.012-.057.013-.058.013-.059.012-.058.013-.059.013-.06.013-.06a1.98 1.98 0 0 1 .026-.12l.013-.062.013-.061.013-.062a625247.421 625247.421 0 0 0 .069-.314l.013-.063.014-.064.014-.064.014-.064.013-.065.014-.064.014-.065.014-.065a2.35 2.35 0 0 0 .014-.065l.015-.065.013-.066a2.35 2.35 0 0 0 .015-.065l.014-.065.014-.066.014-.066a413859272953.962 413859272953.962 0 0 1 .028-.131l.015-.067.014-.066a2.394 2.394 0 0 0 .028-.132l.015-.066.014-.066.014-.065.015-.066.014-.066.014-.065.014-.066.014-.066.014-.065.014-.065a2.35 2.35 0 0 0 .014-.065l.014-.065.014-.064.014-.065a2.261 2.261 0 0 0 .028-.129c.004-.02.01-.042.013-.063.006-.021.01-.043.014-.064l.014-.063.014-.064.013-.062.014-.063.013-.062.014-.062.013-.061c.005-.02.01-.042.013-.062l.013-.06.014-.06c.003-.02.008-.04.013-.062l.012-.059a2.5 2.5 0 0 0 .013-.06l.013-.058.013-.059.012-.058.013-.057.012-.057.012-.057.012-.056.012-.055.012-.056.012-.054.011-.054.012-.054.011-.052.012-.052.01-.052.012-.05.01-.052.011-.049.01-.05c.005-.015.008-.031.011-.047l.01-.048c.004-.016.008-.032.01-.047l.01-.047.01-.045.01-.045.01-.044.009-.043a.999.999 0 0 0 .009-.043l.01-.042.008-.04.009-.04.008-.04a.672.672 0 0 0 .017-.076l.008-.036a.705.705 0 0 0 .007-.036l.008-.035c.028-.132.023-.297-.065-.39-.092-.09-.253-.092-.38-.06l-.035.007-.034.01-.036.008-.037.008-.037.01-.038.01-.04.008-.039.01a3.665 3.665 0 0 1-.04.01l-.042.01-.041.01-.043.011-.044.01-.044.011-.044.011-.047.011-.046.012-.046.011-.048.011-.049.012-.048.012-.05.012a5.817 5.817 0 0 1-.1.025l-.052.012-.052.013a1.506 1.506 0 0 1-.052.012l-.053.014-.054.012-.054.014-.054.013-.055.013L23 .39l-.055.014c-.019.004-.037.01-.056.013l-.057.014-.058.014-.057.014a7.712 7.712 0 0 0-.117.029L22.542.5l-.06.014-.059.014-.06.015-.06.015-.06.014-.061.016-.061.014-.061.015-.062.015-.061.015-.062.015-.063.016-.062.015-.063.015a2.164 2.164 0 0 1-.125.03l-.064.016-.063.016-.064.015-.063.015-.064.016-.063.016c-.022.004-.043.01-.064.015l-.064.015-.064.016a2.88 2.88 0 0 0-.128.031l-.064.016-.064.015a9.067 9.067 0 0 0-.128.032l-.064.015-.064.016-.064.015-.064.016-.063.016-.063.015-.064.015-.064.016-.063.015-.063.015a2.164 2.164 0 0 1-.125.031l-.063.015-.062.016-.063.015-.062.015-.061.015-.061.015-.061.015-.061.015-.06.014-.061.015-.06.015-.06.014a2.52 2.52 0 0 0-.06.015l-.058.014a8.213 8.213 0 0 0-.117.029l-.058.014-.057.014-.058.014c-.018.004-.037.01-.056.013l-.056.014-.056.013-.055.014c-.018.004-.036.01-.055.013-.018.005-.036.01-.053.013l-.054.014-.054.012a1.506 1.506 0 0 1-.052.013l-.053.013-.051.012c-.017.005-.034.01-.05.013l-.051.013-.05.012c-.276.066-.57.085-.832.205-.295.135-.145.33.094.429l.104.044.104.044.103.046.103.047.103.049c.033.016.068.032.102.05l.101.05.101.052a7.284 7.284 0 0 1 .201.108l.1.055.1.057.098.058.099.06.098.06c.032.02.065.04.097.062l.096.062.097.064.096.066.095.066.095.068.094.07a5.844 5.844 0 0 1 .186.141l.093.072.091.074.091.075.09.076.09.078.09.08c.03.025.058.052.088.078.029.028.059.054.087.082l.088.082.086.084.085.084.034.034.009.01.008.008.034.034.084.086a5.173 5.173 0 0 1 .163.176l.081.088.08.09.078.09.076.091.076.092.074.092.074.093.072.094.07.094.07.095c.023.031.047.063.069.095l.067.096.067.097.065.097.063.098a5.041 5.041 0 0 1 .125.198l.06.1.06.1.057.1.057.101c.02.034.037.068.056.102l.055.102.053.103.052.102c.017.035.035.07.05.104.018.035.035.07.05.104l.05.104a7.51 7.51 0 0 1 .093.211l.045.105.044.106c.1.244.293.395.42.091"/>
    </g>
</svg>
